  0
SECTION
  2
HEADER
  9
$ACADVER
  1
AC1009
  9
$INSUNITS
 70
     1
  0
ENDSEC
  0
SECTION
  2
TABLES
  0
TABLE
  2
LAYER
 70
     8
  0
LAYER
  2
0
 62
     7
 70
0
  6
CONTINUOUS
  0
LAYER
  2
1
 62
     1
 70
0
  6
CONTINUOUS
  0
LAYER
  2
2
 62
     2
 70
0
  6
CONTINUOUS
  0
LAYER
  2
3
 62
     3
 70
0
  6
CONTINUOUS
  0
LAYER
  2
4
 62
     4
 70
0
  6
CONTINUOUS
  0
LAYER
  2
5
 62
     5
 70
0
  6
CONTINUOUS
  0
LAYER
  2
6
 62
     6
 70
0
  6
CONTINUOUS
  0
LAYER
  2
7
 62
     7
 70
0
  6
CONTINUOUS
  0
ENDTAB
  0
TABLE
  2
STYLE
 70
     1
  0
STYLE
 70
     0
  2
STANDARD
  3
TXT
 40
0.00
 41
1.00
 42
1.00
 50
0.00
 71
     0
  0
ENDTAB
  0
ENDSEC
  0
SECTION
  2
BLOCKS
  0
BLOCK
  8
0
  2
EPAD
 70
0
 10
0.0
 20
0.0
  0
POLYLINE
  8
0
 66
1
 70
1
 40
0.5
 41
0.5
  0
VERTEX
  8
0
 10
-0.25
 20
0.0
 42
1.0
  0
VERTEX
  8
0
 10
0.25
 20
0.0
 42
1.0
  0
SEQEND
  8
0
  0
ENDBLK
  8
0
  0
BLOCK
  8
0
  2
RPAD
 70
0
 10
0.0
 20
0.0
  0
TRACE
  8
0
 10
-0.5
 20
-0.5
 11
-0.5
 21
0.5
 12
0.5
 22
-0.5
 13
0.5
 23
0.5
  0
ENDBLK
  8
0
  0
ENDSEC
0
SECTION
2
ENTITIES
0
POLYLINE
8
0
66
1
40
0.020000
41
0.020000
0
VERTEX
8
0
10
-10.500000
20
-7.500000
0
VERTEX
8
0
10
10.500000
20
-7.500000
0
VERTEX
8
0
10
10.500000
20
7.500000
0
VERTEX
8
0
10
-10.500000
20
7.500000
0
VERTEX
8
0
10
-10.500000
20
-7.500000
0
SEQEND
8
0
0
POLYLINE
8
0
66
1
40
0.020000
41
0.020000
0
VERTEX
8
0
10
-10.300000
20
-7.300000
0
VERTEX
8
0
10
10.300000
20
-7.300000
0
VERTEX
8
0
10
10.300000
20
7.300000
0
VERTEX
8
0
10
-10.300000
20
7.300000
0
VERTEX
8
0
10
-10.300000
20
-7.300000
0
SEQEND
8
0
0
TEXT
8
0
10
-9.300000
20
7.352000
40
0.096000
41
0.833333
1
A
0
TEXT
8
0
10
-7.250000
20
7.352000
40
0.096000
41
0.833333
1
B
0
TEXT
8
0
10
-5.190000
20
7.352000
40
0.096000
41
0.833333
1
C
0
TEXT
8
0
10
-3.130000
20
7.352000
40
0.096000
41
0.833333
1
D
0
TEXT
8
0
10
-1.070000
20
7.352000
40
0.096000
41
0.833333
1
E
0
TEXT
8
0
10
0.990000
20
7.352000
40
0.096000
41
0.833333
1
F
0
TEXT
8
0
10
3.050000
20
7.352000
40
0.096000
41
0.833333
1
G
0
TEXT
8
0
10
5.110000
20
7.352000
40
0.096000
41
0.833333
1
H
0
TEXT
8
0
10
7.170000
20
7.352000
40
0.096000
41
0.833333
1
J
0
TEXT
8
0
10
9.230000
20
7.352000
40
0.096000
41
0.833333
1
K
0
TEXT
8
0
10
-7.250000
20
-7.448000
40
0.096000
41
0.833333
1
B
0
TEXT
8
0
10
-5.190000
20
-7.448000
40
0.096000
41
0.833333
1
C
0
TEXT
8
0
10
-3.130000
20
-7.448000
40
0.096000
41
0.833333
1
D
0
TEXT
8
0
10
-1.060000
20
-7.448000
40
0.096000
41
0.833333
1
E
0
TEXT
8
0
10
0.990000
20
-7.448000
40
0.096000
41
0.833333
1
F
0
TEXT
8
0
10
3.050000
20
-7.448000
40
0.096000
41
0.833333
1
G
0
TEXT
8
0
10
5.110000
20
-7.448000
40
0.096000
41
0.833333
1
H
0
TEXT
8
0
10
7.170000
20
-7.448000
40
0.096000
41
0.833333
1
J
0
TEXT
8
0
10
9.240000
20
-7.448000
40
0.096000
41
0.833333
1
K
0
TEXT
8
0
10
-9.320000
20
-7.448000
40
0.096000
41
0.833333
1
A
0
POLYLINE
8
0
66
1
40
0.018000
41
0.018000
0
VERTEX
8
0
10
6.800000
20
-7.295000
0
VERTEX
8
0
10
10.300000
20
-7.295000
0
VERTEX
8
0
10
10.300000
20
-6.465000
0
VERTEX
8
0
10
6.800000
20
-6.465000
0
VERTEX
8
0
10
6.800000
20
-7.295000
0
SEQEND
8
0
0
TEXT
8
0
10
6.850000
20
-6.605000
40
0.080000
41
1.000000
1
FILE NAME:
0
TEXT
8
0
10
6.850000
20
-7.225000
40
0.080000
41
1.000000
1
BY:
0
TEXT
8
0
10
9.380000
20
-6.585000
40
0.080000
41
1.000000
1
DATE:
0
TEXT
8
0
10
9.390000
20
-6.955000
40
0.080000
41
1.000000
1
PAGE:
0
TEXT
8
0
10
7.470000
20
-6.618000
40
0.136000
41
0.588235
1
Smart Goggles.pdsprj
0
TEXT
8
0
10
7.120000
20
-7.017500
40
0.140000
41
0.571429
1

0
TEXT
8
0
10
9.380000
20
-6.778000
40
0.136000
41
0.588235
1
20-10-2021
0
TEXT
8
0
10
7.070000
20
-7.225000
40
0.080000
41
1.000000
1
@AUTHOR
0
POLYLINE
8
0
66
1
40
0.018000
41
0.018000
0
VERTEX
8
0
10
9.320000
20
-6.465000
0
VERTEX
8
0
10
9.320000
20
-7.295000
0
SEQEND
8
0
0
TEXT
8
0
10
7.470000
20
-7.043000
40
0.096000
41
0.833333
1
C:\Users\User\OneDrive\Desktop\Smart Goggles Proteus\Smart Goggles.pdsprj
0
TEXT
8
0
10
6.770000
20
-7.035000
40
0.080000
41
1.000000
1
PATH:
0
TEXT
8
0
10
9.360000
20
-7.083000
40
0.096000
41
0.833333
1
1
0
TEXT
8
0
10
9.520000
20
-7.083000
40
0.096000
41
0.833333
1
of
0
TEXT
8
0
10
9.760000
20
-7.083000
40
0.096000
41
0.833333
1
3
0
TEXT
8
0
10
8.590000
20
-7.235000
40
0.080000
41
1.000000
1
REV:
0
TEXT
8
0
10
8.840000
20
-7.243000
40
0.096000
41
0.833333
1
@REV
0
TEXT
8
0
10
9.300000
20
-7.235000
40
0.080000
41
1.000000
1
TIME:
0
TEXT
8
0
10
9.580000
20
-7.235000
40
0.080000
41
1.000000
1
23:38:45
0
TEXT
8
0
10
6.620000
20
-6.825000
40
0.080000
41
1.000000
1
DESIGN TITLE:
0
TEXT
8
0
10
7.470000
20
-6.853000
40
0.136000
41
0.588235
1
Smart Goggles.pdsprj
0
TEXT
8
0
10
-10.440000
20
6.522000
40
0.096000
41
0.833333
1
0
0
TEXT
8
0
10
-10.440000
20
5.062000
40
0.096000
41
0.833333
1
1
0
TEXT
8
0
10
-10.440000
20
3.602000
40
0.096000
41
0.833333
1
2
0
TEXT
8
0
10
-10.440000
20
0.692000
40
0.096000
41
0.833333
1
4
0
TEXT
8
0
10
-10.440000
20
-0.798000
40
0.096000
41
0.833333
1
5
0
TEXT
8
0
10
-10.440000
20
-2.238000
40
0.096000
41
0.833333
1
6
0
TEXT
8
0
10
-10.440000
20
-3.678000
40
0.096000
41
0.833333
1
7
0
TEXT
8
0
10
-10.440000
20
-5.158000
40
0.096000
41
0.833333
1
8
0
TEXT
8
0
10
-10.440000
20
-6.618000
40
0.096000
41
0.833333
1
9
0
TEXT
8
0
10
10.360000
20
6.522000
40
0.096000
41
0.833333
1
0
0
TEXT
8
0
10
10.360000
20
5.062000
40
0.096000
41
0.833333
1
1
0
TEXT
8
0
10
10.360000
20
3.602000
40
0.096000
41
0.833333
1
2
0
TEXT
8
0
10
10.360000
20
2.142000
40
0.096000
41
0.833333
1
3
0
TEXT
8
0
10
10.360000
20
0.682000
40
0.096000
41
0.833333
1
4
0
TEXT
8
0
10
10.360000
20
-0.778000
40
0.096000
41
0.833333
1
5
0
TEXT
8
0
10
10.360000
20
-2.238000
40
0.096000
41
0.833333
1
6
0
TEXT
8
0
10
10.360000
20
-3.708000
40
0.096000
41
0.833333
1
7
0
TEXT
8
0
10
10.360000
20
-5.168000
40
0.096000
41
0.833333
1
8
0
TEXT
8
0
10
-10.440000
20
2.152000
40
0.096000
41
0.833333
1
3
0
TEXT
8
0
10
10.360000
20
-6.618000
40
0.096000
41
0.833333
1
9
0
POLYLINE
8
0
66
1
40
0.020000
41
0.020000
0
VERTEX
8
0
10
-10.300000
20
5.840000
0
VERTEX
8
0
10
-10.500000
20
5.840000
0
SEQEND
8
0
0
POLYLINE
8
0
66
1
40
0.020000
41
0.020000
0
VERTEX
8
0
10
-10.300000
20
7.300000
0
VERTEX
8
0
10
-10.500000
20
7.300000
0
SEQEND
8
0
0
POLYLINE
8
0
66
1
40
0.020000
41
0.020000
0
VERTEX
8
0
10
-10.300000
20
4.380000
0
VERTEX
8
0
10
-10.500000
20
4.380000
0
SEQEND
8
0
0
POLYLINE
8
0
66
1
40
0.020000
41
0.020000
0
VERTEX
8
0
10
-10.300000
20
2.920000
0
VERTEX
8
0
10
-10.500000
20
2.920000
0
SEQEND
8
0
0
POLYLINE
8
0
66
1
40
0.020000
41
0.020000
0
VERTEX
8
0
10
-10.300000
20
1.460000
0
VERTEX
8
0
10
-10.500000
20
1.460000
0
SEQEND
8
0
0
POLYLINE
8
0
66
1
40
0.020000
41
0.020000
0
VERTEX
8
0
10
-10.300000
20
0.000000
0
VERTEX
8
0
10
-10.500000
20
0.000000
0
SEQEND
8
0
0
POLYLINE
8
0
66
1
40
0.020000
41
0.020000
0
VERTEX
8
0
10
-10.300000
20
-1.460000
0
VERTEX
8
0
10
-10.500000
20
-1.460000
0
SEQEND
8
0
0
POLYLINE
8
0
66
1
40
0.020000
41
0.020000
0
VERTEX
8
0
10
-10.300000
20
-2.920000
0
VERTEX
8
0
10
-10.500000
20
-2.920000
0
SEQEND
8
0
0
POLYLINE
8
0
66
1
40
0.020000
41
0.020000
0
VERTEX
8
0
10
-10.300000
20
-4.380000
0
VERTEX
8
0
10
-10.500000
20
-4.380000
0
SEQEND
8
0
0
POLYLINE
8
0
66
1
40
0.020000
41
0.020000
0
VERTEX
8
0
10
-10.300000
20
-4.380000
0
VERTEX
8
0
10
-10.500000
20
-4.380000
0
SEQEND
8
0
0
POLYLINE
8
0
66
1
40
0.020000
41
0.020000
0
VERTEX
8
0
10
-10.300000
20
-5.840000
0
VERTEX
8
0
10
-10.500000
20
-5.840000
0
SEQEND
8
0
0
POLYLINE
8
0
66
1
40
0.020000
41
0.020000
0
VERTEX
8
0
10
-10.300000
20
-7.300000
0
VERTEX
8
0
10
-10.500000
20
-7.300000
0
SEQEND
8
0
0
POLYLINE
8
0
66
1
40
0.020000
41
0.020000
0
VERTEX
8
0
10
10.500000
20
5.840000
0
VERTEX
8
0
10
10.300000
20
5.840000
0
SEQEND
8
0
0
POLYLINE
8
0
66
1
40
0.020000
41
0.020000
0
VERTEX
8
0
10
10.500000
20
7.300000
0
VERTEX
8
0
10
10.300000
20
7.300000
0
SEQEND
8
0
0
POLYLINE
8
0
66
1
40
0.020000
41
0.020000
0
VERTEX
8
0
10
10.500000
20
4.380000
0
VERTEX
8
0
10
10.300000
20
4.380000
0
SEQEND
8
0
0
POLYLINE
8
0
66
1
40
0.020000
41
0.020000
0
VERTEX
8
0
10
10.500000
20
2.920000
0
VERTEX
8
0
10
10.300000
20
2.920000
0
SEQEND
8
0
0
POLYLINE
8
0
66
1
40
0.020000
41
0.020000
0
VERTEX
8
0
10
10.500000
20
1.460000
0
VERTEX
8
0
10
10.300000
20
1.460000
0
SEQEND
8
0
0
POLYLINE
8
0
66
1
40
0.020000
41
0.020000
0
VERTEX
8
0
10
10.500000
20
1.460000
0
VERTEX
8
0
10
10.300000
20
1.460000
0
SEQEND
8
0
0
POLYLINE
8
0
66
1
40
0.020000
41
0.020000
0
VERTEX
8
0
10
10.500000
20
0.000000
0
VERTEX
8
0
10
10.300000
20
0.000000
0
SEQEND
8
0
0
POLYLINE
8
0
66
1
40
0.020000
41
0.020000
0
VERTEX
8
0
10
10.500000
20
1.460000
0
VERTEX
8
0
10
10.300000
20
1.460000
0
SEQEND
8
0
0
POLYLINE
8
0
66
1
40
0.020000
41
0.020000
0
VERTEX
8
0
10
10.500000
20
-1.460000
0
VERTEX
8
0
10
10.300000
20
-1.460000
0
SEQEND
8
0
0
POLYLINE
8
0
66
1
40
0.020000
41
0.020000
0
VERTEX
8
0
10
10.500000
20
-2.920000
0
VERTEX
8
0
10
10.300000
20
-2.920000
0
SEQEND
8
0
0
POLYLINE
8
0
66
1
40
0.020000
41
0.020000
0
VERTEX
8
0
10
10.500000
20
-4.380000
0
VERTEX
8
0
10
10.300000
20
-4.380000
0
SEQEND
8
0
0
POLYLINE
8
0
66
1
40
0.020000
41
0.020000
0
VERTEX
8
0
10
10.500000
20
-5.840000
0
VERTEX
8
0
10
10.300000
20
-5.840000
0
SEQEND
8
0
0
POLYLINE
8
0
66
1
40
0.020000
41
0.020000
0
VERTEX
8
0
10
10.500000
20
-7.300000
0
VERTEX
8
0
10
10.300000
20
-7.300000
0
SEQEND
8
0
0
POLYLINE
8
0
66
1
40
0.020000
41
0.020000
0
VERTEX
8
0
10
-10.300000
20
7.300000
0
VERTEX
8
0
10
-10.300000
20
7.500000
0
SEQEND
8
0
0
POLYLINE
8
0
66
1
40
0.020000
41
0.020000
0
VERTEX
8
0
10
-8.240000
20
7.300000
0
VERTEX
8
0
10
-8.240000
20
7.500000
0
SEQEND
8
0
0
POLYLINE
8
0
66
1
40
0.020000
41
0.020000
0
VERTEX
8
0
10
-6.180000
20
7.300000
0
VERTEX
8
0
10
-6.180000
20
7.500000
0
SEQEND
8
0
0
POLYLINE
8
0
66
1
40
0.020000
41
0.020000
0
VERTEX
8
0
10
-2.060000
20
7.300000
0
VERTEX
8
0
10
-2.060000
20
7.500000
0
SEQEND
8
0
0
POLYLINE
8
0
66
1
40
0.020000
41
0.020000
0
VERTEX
8
0
10
0.000000
20
7.300000
0
VERTEX
8
0
10
0.000000
20
7.500000
0
SEQEND
8
0
0
POLYLINE
8
0
66
1
40
0.020000
41
0.020000
0
VERTEX
8
0
10
2.060000
20
7.300000
0
VERTEX
8
0
10
2.060000
20
7.500000
0
SEQEND
8
0
0
POLYLINE
8
0
66
1
40
0.020000
41
0.020000
0
VERTEX
8
0
10
4.120000
20
7.300000
0
VERTEX
8
0
10
4.120000
20
7.500000
0
SEQEND
8
0
0
POLYLINE
8
0
66
1
40
0.020000
41
0.020000
0
VERTEX
8
0
10
6.180000
20
7.300000
0
VERTEX
8
0
10
6.180000
20
7.500000
0
SEQEND
8
0
0
POLYLINE
8
0
66
1
40
0.020000
41
0.020000
0
VERTEX
8
0
10
8.240000
20
7.300000
0
VERTEX
8
0
10
8.240000
20
7.500000
0
SEQEND
8
0
0
POLYLINE
8
0
66
1
40
0.020000
41
0.020000
0
VERTEX
8
0
10
10.300000
20
7.300000
0
VERTEX
8
0
10
10.300000
20
7.500000
0
SEQEND
8
0
0
POLYLINE
8
0
66
1
40
0.020000
41
0.020000
0
VERTEX
8
0
10
-4.120000
20
7.300000
0
VERTEX
8
0
10
-4.120000
20
7.500000
0
SEQEND
8
0
0
POLYLINE
8
0
66
1
40
0.020000
41
0.020000
0
VERTEX
8
0
10
-10.300000
20
-7.500000
0
VERTEX
8
0
10
-10.300000
20
-7.300000
0
SEQEND
8
0
0
POLYLINE
8
0
66
1
40
0.020000
41
0.020000
0
VERTEX
8
0
10
-8.240000
20
-7.500000
0
VERTEX
8
0
10
-8.240000
20
-7.300000
0
SEQEND
8
0
0
POLYLINE
8
0
66
1
40
0.020000
41
0.020000
0
VERTEX
8
0
10
-6.180000
20
-7.500000
0
VERTEX
8
0
10
-6.180000
20
-7.300000
0
SEQEND
8
0
0
POLYLINE
8
0
66
1
40
0.020000
41
0.020000
0
VERTEX
8
0
10
-2.060000
20
-7.500000
0
VERTEX
8
0
10
-2.060000
20
-7.300000
0
SEQEND
8
0
0
POLYLINE
8
0
66
1
40
0.020000
41
0.020000
0
VERTEX
8
0
10
0.000000
20
-7.500000
0
VERTEX
8
0
10
0.000000
20
-7.300000
0
SEQEND
8
0
0
POLYLINE
8
0
66
1
40
0.020000
41
0.020000
0
VERTEX
8
0
10
2.060000
20
-7.500000
0
VERTEX
8
0
10
2.060000
20
-7.300000
0
SEQEND
8
0
0
POLYLINE
8
0
66
1
40
0.020000
41
0.020000
0
VERTEX
8
0
10
4.120000
20
-7.500000
0
VERTEX
8
0
10
4.120000
20
-7.300000
0
SEQEND
8
0
0
POLYLINE
8
0
66
1
40
0.020000
41
0.020000
0
VERTEX
8
0
10
6.180000
20
-7.500000
0
VERTEX
8
0
10
6.180000
20
-7.300000
0
SEQEND
8
0
0
POLYLINE
8
0
66
1
40
0.020000
41
0.020000
0
VERTEX
8
0
10
8.240000
20
-7.500000
0
VERTEX
8
0
10
8.240000
20
-7.300000
0
SEQEND
8
0
0
POLYLINE
8
0
66
1
40
0.020000
41
0.020000
0
VERTEX
8
0
10
10.300000
20
-7.500000
0
VERTEX
8
0
10
10.300000
20
-7.300000
0
SEQEND
8
0
0
POLYLINE
8
0
66
1
40
0.020000
41
0.020000
0
VERTEX
8
0
10
-4.120000
20
-7.500000
0
VERTEX
8
0
10
-4.120000
20
-7.300000
0
SEQEND
8
0
0
POLYLINE
8
0
66
1
40
0.016000
41
0.016000
0
VERTEX
8
0
10
1.000000
20
-1.950000
0
VERTEX
8
0
10
1.680000
20
-1.950000
0
VERTEX
8
0
10
1.680000
20
-2.010000
0
SEQEND
8
0
0
POLYLINE
8
0
66
1
40
0.016000
41
0.016000
0
VERTEX
8
0
10
1.000000
20
-1.640000
0
VERTEX
8
0
10
1.260000
20
-1.640000
0
VERTEX
8
0
10
1.260000
20
-1.510000
0
SEQEND
8
0
0
POLYLINE
8
0
66
1
40
0.016000
41
0.016000
0
VERTEX
8
0
10
3.740000
20
-1.920000
0
VERTEX
8
0
10
4.140000
20
-1.920000
0
VERTEX
8
0
10
4.140000
20
-1.900000
0
SEQEND
8
0
0
POLYLINE
8
0
66
1
40
0.016000
41
0.016000
0
VERTEX
8
0
10
3.740000
20
-2.120000
0
VERTEX
8
0
10
4.150000
20
-2.120000
0
VERTEX
8
0
10
4.150000
20
-2.140000
0
SEQEND
8
0
0
POLYLINE
8
0
66
1
40
0.016000
41
0.016000
0
VERTEX
8
0
10
3.740000
20
-3.220000
0
VERTEX
8
0
10
4.020000
20
-3.220000
0
SEQEND
8
0
0
TEXT
8
0
10
3.690000
20
-3.318000
40
0.080000
41
1.000000
1
D13
0
POLYLINE
8
0
66
1
40
0.016000
41
0.016000
0
VERTEX
8
0
10
3.740000
20
-3.120000
0
VERTEX
8
0
10
4.020000
20
-3.120000
0
SEQEND
8
0
0
POLYLINE
8
0
66
1
40
0.016000
41
0.016000
0
VERTEX
8
0
10
3.740000
20
-3.020000
0
VERTEX
8
0
10
4.020000
20
-3.020000
0
SEQEND
8
0
0
POLYLINE
8
0
66
1
40
0.016000
41
0.016000
0
VERTEX
8
0
10
3.740000
20
-2.920000
0
VERTEX
8
0
10
4.020000
20
-2.920000
0
SEQEND
8
0
0
TEXT
8
0
10
3.770000
20
-2.928000
40
0.080000
41
1.000000
1
A0
0
POLYLINE
8
0
66
1
40
0.016000
41
0.016000
0
VERTEX
8
0
10
3.740000
20
-2.820000
0
VERTEX
8
0
10
4.020000
20
-2.820000
0
SEQEND
8
0
0
TEXT
8
0
10
3.770000
20
-2.818000
40
0.080000
41
1.000000
1
A1
0
POLYLINE
8
0
66
1
40
0.016000
41
0.016000
0
VERTEX
8
0
10
3.740000
20
-2.720000
0
VERTEX
8
0
10
4.020000
20
-2.720000
0
SEQEND
8
0
0
TEXT
8
0
10
3.750000
20
-2.718000
40
0.080000
41
1.000000
1
A2
0
POLYLINE
8
0
66
1
40
0.016000
41
0.016000
0
VERTEX
8
0
10
3.740000
20
-2.620000
0
VERTEX
8
0
10
4.020000
20
-2.620000
0
SEQEND
8
0
0
TEXT
8
0
10
3.740000
20
-2.628000
40
0.080000
41
1.000000
1
A3
0
POLYLINE
8
0
66
1
40
0.016000
41
0.016000
0
VERTEX
8
0
10
3.740000
20
-2.520000
0
VERTEX
8
0
10
4.020000
20
-2.520000
0
SEQEND
8
0
0
TEXT
8
0
10
3.690000
20
-2.518000
40
0.080000
41
1.000000
1
SDA
0
POLYLINE
8
0
66
1
40
0.016000
41
0.016000
0
VERTEX
8
0
10
3.740000
20
-2.420000
0
VERTEX
8
0
10
4.020000
20
-2.420000
0
SEQEND
8
0
0
TEXT
8
0
10
3.680000
20
-2.408000
40
0.080000
41
1.000000
1
SCL
0
POLYLINE
8
0
66
1
40
0.016000
41
0.016000
0
VERTEX
8
0
10
3.740000
20
-2.320000
0
VERTEX
8
0
10
4.020000
20
-2.320000
0
SEQEND
8
0
0
POLYLINE
8
0
66
1
40
0.016000
41
0.016000
0
VERTEX
8
0
10
3.740000
20
-2.220000
0
VERTEX
8
0
10
4.020000
20
-2.220000
0
SEQEND
8
0
0
POLYLINE
8
0
66
1
40
0.016000
41
0.016000
0
VERTEX
8
0
10
2.550000
20
-2.250000
0
VERTEX
8
0
10
2.290000
20
-2.250000
0
SEQEND
8
0
0
TEXT
8
0
10
2.330000
20
-2.348000
40
0.080000
41
1.000000
1
D2
0
POLYLINE
8
0
66
1
40
0.016000
41
0.016000
0
VERTEX
8
0
10
2.550000
20
-2.350000
0
VERTEX
8
0
10
2.290000
20
-2.350000
0
SEQEND
8
0
0
TEXT
8
0
10
2.330000
20
-2.448000
40
0.080000
41
1.000000
1
D3
0
POLYLINE
8
0
66
1
40
0.016000
41
0.016000
0
VERTEX
8
0
10
2.550000
20
-2.450000
0
VERTEX
8
0
10
2.290000
20
-2.450000
0
SEQEND
8
0
0
TEXT
8
0
10
2.330000
20
-2.548000
40
0.080000
41
1.000000
1
D4
0
POLYLINE
8
0
66
1
40
0.016000
41
0.016000
0
VERTEX
8
0
10
2.550000
20
-2.550000
0
VERTEX
8
0
10
2.290000
20
-2.550000
0
SEQEND
8
0
0
TEXT
8
0
10
2.330000
20
-2.648000
40
0.080000
41
1.000000
1
D5
0
POLYLINE
8
0
66
1
40
0.016000
41
0.016000
0
VERTEX
8
0
10
2.550000
20
-2.650000
0
VERTEX
8
0
10
2.290000
20
-2.650000
0
SEQEND
8
0
0
TEXT
8
0
10
2.330000
20
-2.748000
40
0.080000
41
1.000000
1
D6
0
POLYLINE
8
0
66
1
40
0.016000
41
0.016000
0
VERTEX
8
0
10
2.550000
20
-2.750000
0
VERTEX
8
0
10
2.290000
20
-2.750000
0
SEQEND
8
0
0
TEXT
8
0
10
2.160000
20
-2.848000
40
0.080000
41
1.000000
1
TX-B
0
POLYLINE
8
0
66
1
40
0.016000
41
0.016000
0
VERTEX
8
0
10
2.550000
20
-2.850000
0
VERTEX
8
0
10
2.290000
20
-2.850000
0
SEQEND
8
0
0
TEXT
8
0
10
2.170000
20
-2.948000
40
0.080000
41
1.000000
1
RX-B
0
POLYLINE
8
0
66
1
40
0.016000
41
0.016000
0
VERTEX
8
0
10
2.550000
20
-2.950000
0
VERTEX
8
0
10
2.290000
20
-2.950000
0
SEQEND
8
0
0
TEXT
8
0
10
2.320000
20
-3.048000
40
0.080000
41
1.000000
1
D9
0
POLYLINE
8
0
66
1
40
0.016000
41
0.016000
0
VERTEX
8
0
10
2.550000
20
-3.050000
0
VERTEX
8
0
10
2.290000
20
-3.050000
0
SEQEND
8
0
0
TEXT
8
0
10
2.280000
20
-3.138000
40
0.080000
41
1.000000
1
D10
0
POLYLINE
8
0
66
1
40
0.016000
41
0.016000
0
VERTEX
8
0
10
2.550000
20
-3.150000
0
VERTEX
8
0
10
2.290000
20
-3.150000
0
SEQEND
8
0
0
TEXT
8
0
10
2.280000
20
-3.258000
40
0.080000
41
1.000000
1
D11
0
POLYLINE
8
0
66
1
40
0.016000
41
0.016000
0
VERTEX
8
0
10
2.550000
20
-3.250000
0
VERTEX
8
0
10
2.290000
20
-3.250000
0
SEQEND
8
0
0
TEXT
8
0
10
2.300000
20
-3.358000
40
0.080000
41
1.000000
1
D12
0
POLYLINE
8
0
66
1
40
0.016000
41
0.016000
0
VERTEX
8
0
10
-0.800000
20
-3.460000
0
VERTEX
8
0
10
-1.060000
20
-3.460000
0
SEQEND
8
0
0
POLYLINE
8
0
66
1
40
0.016000
41
0.016000
0
VERTEX
8
0
10
-0.800000
20
-3.290000
0
VERTEX
8
0
10
-1.060000
20
-3.290000
0
SEQEND
8
0
0
POLYLINE
8
0
66
1
40
0.016000
41
0.016000
0
VERTEX
8
0
10
-0.800000
20
-3.150000
0
VERTEX
8
0
10
-1.060000
20
-3.150000
0
SEQEND
8
0
0
POLYLINE
8
0
66
1
40
0.016000
41
0.016000
0
VERTEX
8
0
10
-0.800000
20
-3.000000
0
VERTEX
8
0
10
-1.060000
20
-3.000000
0
SEQEND
8
0
0
POLYLINE
8
0
66
1
40
0.016000
41
0.016000
0
VERTEX
8
0
10
-0.800000
20
-2.850000
0
VERTEX
8
0
10
-1.060000
20
-2.850000
0
SEQEND
8
0
0
POLYLINE
8
0
66
1
40
0.016000
41
0.016000
0
VERTEX
8
0
10
-0.800000
20
-2.700000
0
VERTEX
8
0
10
-1.060000
20
-2.700000
0
SEQEND
8
0
0
POLYLINE
8
0
66
1
40
0.016000
41
0.016000
0
VERTEX
8
0
10
-0.800000
20
-2.550000
0
VERTEX
8
0
10
-1.060000
20
-2.550000
0
SEQEND
8
0
0
POLYLINE
8
0
66
1
40
0.016000
41
0.016000
0
VERTEX
8
0
10
-0.800000
20
-2.400000
0
VERTEX
8
0
10
-1.060000
20
-2.400000
0
SEQEND
8
0
0
POLYLINE
8
0
66
1
40
0.016000
41
0.016000
0
VERTEX
8
0
10
-0.800000
20
-2.250000
0
VERTEX
8
0
10
-1.060000
20
-2.250000
0
SEQEND
8
0
0
POLYLINE
8
0
66
1
40
0.016000
41
0.016000
0
VERTEX
8
0
10
-0.800000
20
-2.100000
0
VERTEX
8
0
10
-1.060000
20
-2.100000
0
SEQEND
8
0
0
POLYLINE
8
0
66
1
40
0.016000
41
0.016000
0
VERTEX
8
0
10
-0.800000
20
-1.950000
0
VERTEX
8
0
10
-1.060000
20
-1.950000
0
SEQEND
8
0
0
POLYLINE
8
0
66
1
40
0.016000
41
0.016000
0
VERTEX
8
0
10
-0.800000
20
-1.800000
0
VERTEX
8
0
10
-1.060000
20
-1.800000
0
SEQEND
8
0
0
POLYLINE
8
0
66
1
40
0.016000
41
0.016000
0
VERTEX
8
0
10
-0.800000
20
-1.650000
0
VERTEX
8
0
10
-1.060000
20
-1.650000
0
SEQEND
8
0
0
POLYLINE
8
0
66
1
40
0.016000
41
0.016000
0
VERTEX
8
0
10
1.000000
20
-2.100000
0
VERTEX
8
0
10
1.340000
20
-2.100000
0
SEQEND
8
0
0
POLYLINE
8
0
66
1
40
0.016000
41
0.016000
0
VERTEX
8
0
10
1.000000
20
-2.260000
0
VERTEX
8
0
10
1.340000
20
-2.260000
0
SEQEND
8
0
0
POLYLINE
8
0
66
1
40
0.016000
41
0.016000
0
VERTEX
8
0
10
1.000000
20
-2.400000
0
VERTEX
8
0
10
1.340000
20
-2.400000
0
SEQEND
8
0
0
TEXT
8
0
10
1.090000
20
-2.372000
40
0.080000
41
1.000000
1
SCL
0
POLYLINE
8
0
66
1
40
0.016000
41
0.016000
0
VERTEX
8
0
10
1.000000
20
-2.550000
0
VERTEX
8
0
10
1.340000
20
-2.550000
0
SEQEND
8
0
0
TEXT
8
0
10
1.090000
20
-2.512000
40
0.080000
41
1.000000
1
SDA
0
POLYLINE
8
0
66
1
40
0.016000
41
0.016000
0
VERTEX
8
0
10
1.000000
20
-2.700000
0
VERTEX
8
0
10
1.340000
20
-2.700000
0
SEQEND
8
0
0
POLYLINE
8
0
66
1
40
0.016000
41
0.016000
0
VERTEX
8
0
10
1.000000
20
-2.850000
0
VERTEX
8
0
10
1.340000
20
-2.850000
0
SEQEND
8
0
0
POLYLINE
8
0
66
1
40
0.016000
41
0.016000
0
VERTEX
8
0
10
0.990000
20
-3.000000
0
VERTEX
8
0
10
1.330000
20
-3.000000
0
SEQEND
8
0
0
POLYLINE
8
0
66
1
40
0.016000
41
0.016000
0
VERTEX
8
0
10
0.990000
20
-3.150000
0
VERTEX
8
0
10
1.330000
20
-3.150000
0
SEQEND
8
0
0
POLYLINE
8
0
66
1
40
0.016000
41
0.016000
0
VERTEX
8
0
10
0.990000
20
-3.460000
0
VERTEX
8
0
10
1.330000
20
-3.460000
0
SEQEND
8
0
0
POLYLINE
8
0
66
1
40
0.016000
41
0.016000
0
VERTEX
8
0
10
2.550000
20
-1.850000
0
VERTEX
8
0
10
2.280000
20
-1.850000
0
SEQEND
8
0
0
TEXT
8
0
10
2.280000
20
-1.948000
40
0.080000
41
1.000000
1
TX
0
POLYLINE
8
0
66
1
40
0.016000
41
0.016000
0
VERTEX
8
0
10
2.550000
20
-1.950000
0
VERTEX
8
0
10
2.280000
20
-1.950000
0
SEQEND
8
0
0
TEXT
8
0
10
2.280000
20
-2.048000
40
0.080000
41
1.000000
1
RX
0
POLYLINE
8
0
66
1
40
0.016000
41
0.016000
0
VERTEX
8
0
10
1.480000
20
0.620000
0
VERTEX
8
0
10
1.400000
20
0.620000
0
VERTEX
8
0
10
1.400000
20
0.570000
0
SEQEND
8
0
0
POLYLINE
8
0
66
1
40
0.016000
41
0.016000
0
VERTEX
8
0
10
1.480000
20
0.720000
0
VERTEX
8
0
10
1.230000
20
0.720000
0
VERTEX
8
0
10
1.230000
20
0.660000
0
VERTEX
8
0
10
1.020000
20
0.660000
0
VERTEX
8
0
10
1.020000
20
0.680000
0
SEQEND
8
0
0
POLYLINE
8
0
66
1
40
0.016000
41
0.016000
0
VERTEX
8
0
10
1.480000
20
0.820000
0
VERTEX
8
0
10
1.150000
20
0.820000
0
SEQEND
8
0
0
TEXT
8
0
10
1.310000
20
0.838000
40
0.080000
41
1.000000
1
SCL
0
POLYLINE
8
0
66
1
40
0.016000
41
0.016000
0
VERTEX
8
0
10
1.480000
20
0.920000
0
VERTEX
8
0
10
1.150000
20
0.920000
0
SEQEND
8
0
0
TEXT
8
0
10
1.280000
20
0.938000
40
0.080000
41
1.000000
1
SDA
0
POLYLINE
8
0
66
1
40
0.016000
41
0.016000
0
VERTEX
8
0
10
-2.370000
20
-1.170000
0
VERTEX
8
0
10
-2.490000
20
-1.170000
0
VERTEX
8
0
10
-2.490000
20
-1.160000
0
SEQEND
8
0
0
POLYLINE
8
0
66
1
40
0.016000
41
0.016000
0
VERTEX
8
0
10
-2.370000
20
-1.270000
0
VERTEX
8
0
10
-2.480000
20
-1.270000
0
VERTEX
8
0
10
-2.480000
20
-1.300000
0
SEQEND
8
0
0
POLYLINE
8
0
66
1
40
0.016000
41
0.016000
0
VERTEX
8
0
10
-0.490000
20
0.730000
0
VERTEX
8
0
10
-0.740000
20
0.730000
0
VERTEX
8
0
10
-0.740000
20
0.800000
0
SEQEND
8
0
0
POLYLINE
8
0
66
1
40
0.016000
41
0.016000
0
VERTEX
8
0
10
-0.490000
20
0.630000
0
VERTEX
8
0
10
-1.040000
20
0.630000
0
VERTEX
8
0
10
-1.040000
20
0.590000
0
SEQEND
8
0
0
POLYLINE
8
0
66
1
40
0.016000
41
0.016000
0
VERTEX
8
0
10
-0.490000
20
0.530000
0
VERTEX
8
0
10
-0.830000
20
0.530000
0
SEQEND
8
0
0
TEXT
8
0
10
-0.780000
20
0.548000
40
0.080000
41
1.000000
1
TX-B
0
POLYLINE
8
0
66
1
40
0.016000
41
0.016000
0
VERTEX
8
0
10
-0.490000
20
0.430000
0
VERTEX
8
0
10
-0.830000
20
0.430000
0
SEQEND
8
0
0
TEXT
8
0
10
-0.780000
20
0.438000
40
0.080000
41
1.000000
1
RX-B
0
POLYLINE
8
0
66
1
40
0.016000
41
0.016000
0
VERTEX
8
0
10
-3.000000
20
0.160000
0
VERTEX
8
0
10
-2.800000
20
0.160000
0
VERTEX
8
0
10
-2.800000
20
0.960000
0
VERTEX
8
0
10
-3.000000
20
0.960000
0
VERTEX
8
0
10
-3.000000
20
0.160000
0
SEQEND
8
0
0
POLYLINE
8
0
66
1
40
0.016000
41
0.016000
0
VERTEX
8
0
10
-2.930000
20
0.860000
0
VERTEX
8
0
10
-3.000000
20
0.860000
0
SEQEND
8
0
0
CIRCLE
8
0
10
-2.900000
20
0.760000
40
0.030000
0
POLYLINE
8
0
66
1
40
0.016000
41
0.016000
0
VERTEX
8
0
10
-2.930000
20
0.760000
0
VERTEX
8
0
10
-3.000000
20
0.760000
0
SEQEND
8
0
0
CIRCLE
8
0
10
-2.900000
20
0.660000
40
0.030000
0
POLYLINE
8
0
66
1
40
0.016000
41
0.016000
0
VERTEX
8
0
10
-2.930000
20
0.660000
0
VERTEX
8
0
10
-3.000000
20
0.660000
0
SEQEND
8
0
0
CIRCLE
8
0
10
-2.900000
20
0.560000
40
0.030000
0
POLYLINE
8
0
66
1
40
0.016000
41
0.016000
0
VERTEX
8
0
10
-2.930000
20
0.560000
0
VERTEX
8
0
10
-3.000000
20
0.560000
0
SEQEND
8
0
0
CIRCLE
8
0
10
-2.900000
20
0.460000
40
0.030000
0
POLYLINE
8
0
66
1
40
0.016000
41
0.016000
0
VERTEX
8
0
10
-2.930000
20
0.460000
0
VERTEX
8
0
10
-3.000000
20
0.460000
0
SEQEND
8
0
0
CIRCLE
8
0
10
-2.900000
20
0.360000
40
0.030000
0
POLYLINE
8
0
66
1
40
0.016000
41
0.016000
0
VERTEX
8
0
10
-2.930000
20
0.360000
0
VERTEX
8
0
10
-3.000000
20
0.360000
0
SEQEND
8
0
0
CIRCLE
8
0
10
-2.900000
20
0.260000
40
0.030000
0
POLYLINE
8
0
66
1
40
0.016000
41
0.016000
0
VERTEX
8
0
10
-2.930000
20
0.260000
0
VERTEX
8
0
10
-3.000000
20
0.260000
0
SEQEND
8
0
0
CIRCLE
8
0
10
-2.900000
20
0.860000
40
0.030000
0
POLYLINE
8
0
66
1
40
0.016000
41
0.016000
0
VERTEX
8
0
10
-3.200000
20
0.860000
0
VERTEX
8
0
10
-3.000000
20
0.860000
0
SEQEND
8
0
0
TEXT
8
0
10
-3.180000
20
0.870000
40
0.080000
41
1.000000
1
1
0
POLYLINE
8
0
66
1
40
0.016000
41
0.016000
0
VERTEX
8
0
10
-3.200000
20
0.760000
0
VERTEX
8
0
10
-3.000000
20
0.760000
0
SEQEND
8
0
0
TEXT
8
0
10
-3.180000
20
0.770000
40
0.080000
41
1.000000
1
2
0
POLYLINE
8
0
66
1
40
0.016000
41
0.016000
0
VERTEX
8
0
10
-3.200000
20
0.660000
0
VERTEX
8
0
10
-3.000000
20
0.660000
0
SEQEND
8
0
0
TEXT
8
0
10
-3.180000
20
0.670000
40
0.080000
41
1.000000
1
3
0
POLYLINE
8
0
66
1
40
0.016000
41
0.016000
0
VERTEX
8
0
10
-3.200000
20
0.560000
0
VERTEX
8
0
10
-3.000000
20
0.560000
0
SEQEND
8
0
0
TEXT
8
0
10
-3.180000
20
0.570000
40
0.080000
41
1.000000
1
4
0
POLYLINE
8
0
66
1
40
0.016000
41
0.016000
0
VERTEX
8
0
10
-3.200000
20
0.460000
0
VERTEX
8
0
10
-3.000000
20
0.460000
0
SEQEND
8
0
0
TEXT
8
0
10
-3.180000
20
0.470000
40
0.080000
41
1.000000
1
5
0
POLYLINE
8
0
66
1
40
0.016000
41
0.016000
0
VERTEX
8
0
10
-3.200000
20
0.360000
0
VERTEX
8
0
10
-3.000000
20
0.360000
0
SEQEND
8
0
0
TEXT
8
0
10
-3.180000
20
0.370000
40
0.080000
41
1.000000
1
6
0
POLYLINE
8
0
66
1
40
0.016000
41
0.016000
0
VERTEX
8
0
10
-3.200000
20
0.260000
0
VERTEX
8
0
10
-3.000000
20
0.260000
0
SEQEND
8
0
0
TEXT
8
0
10
-3.180000
20
0.270000
40
0.080000
41
1.000000
1
7
0
TEXT
8
0
10
-3.008000
20
0.983000
40
0.120000
41
0.666667
1
J1
0
TEXT
8
0
10
-3.008000
20
0.062000
40
0.080000
41
1.000000
1
SIL-100-07
0
POLYLINE
8
0
66
1
40
0.016000
41
0.016000
0
VERTEX
8
0
10
1.680000
20
0.520000
0
VERTEX
8
0
10
1.880000
20
0.520000
0
VERTEX
8
0
10
1.880000
20
1.020000
0
VERTEX
8
0
10
1.680000
20
1.020000
0
VERTEX
8
0
10
1.680000
20
0.520000
0
SEQEND
8
0
0
POLYLINE
8
0
66
1
40
0.016000
41
0.016000
0
VERTEX
8
0
10
1.750000
20
0.920000
0
VERTEX
8
0
10
1.680000
20
0.920000
0
SEQEND
8
0
0
CIRCLE
8
0
10
1.780000
20
0.920000
40
0.030000
0
POLYLINE
8
0
66
1
40
0.016000
41
0.016000
0
VERTEX
8
0
10
1.750000
20
0.820000
0
VERTEX
8
0
10
1.680000
20
0.820000
0
SEQEND
8
0
0
CIRCLE
8
0
10
1.780000
20
0.820000
40
0.030000
0
POLYLINE
8
0
66
1
40
0.016000
41
0.016000
0
VERTEX
8
0
10
1.750000
20
0.720000
0
VERTEX
8
0
10
1.680000
20
0.720000
0
SEQEND
8
0
0
CIRCLE
8
0
10
1.780000
20
0.720000
40
0.030000
0
POLYLINE
8
0
66
1
40
0.016000
41
0.016000
0
VERTEX
8
0
10
1.750000
20
0.620000
0
VERTEX
8
0
10
1.680000
20
0.620000
0
SEQEND
8
0
0
CIRCLE
8
0
10
1.780000
20
0.620000
40
0.030000
0
POLYLINE
8
0
66
1
40
0.016000
41
0.016000
0
VERTEX
8
0
10
1.480000
20
0.920000
0
VERTEX
8
0
10
1.680000
20
0.920000
0
SEQEND
8
0
0
TEXT
8
0
10
1.500000
20
0.930000
40
0.080000
41
1.000000
1
1
0
POLYLINE
8
0
66
1
40
0.016000
41
0.016000
0
VERTEX
8
0
10
1.480000
20
0.820000
0
VERTEX
8
0
10
1.680000
20
0.820000
0
SEQEND
8
0
0
TEXT
8
0
10
1.500000
20
0.830000
40
0.080000
41
1.000000
1
2
0
POLYLINE
8
0
66
1
40
0.016000
41
0.016000
0
VERTEX
8
0
10
1.480000
20
0.720000
0
VERTEX
8
0
10
1.680000
20
0.720000
0
SEQEND
8
0
0
TEXT
8
0
10
1.500000
20
0.730000
40
0.080000
41
1.000000
1
3
0
POLYLINE
8
0
66
1
40
0.016000
41
0.016000
0
VERTEX
8
0
10
1.480000
20
0.620000
0
VERTEX
8
0
10
1.680000
20
0.620000
0
SEQEND
8
0
0
TEXT
8
0
10
1.500000
20
0.630000
40
0.080000
41
1.000000
1
4
0
TEXT
8
0
10
1.672000
20
1.043000
40
0.120000
41
0.666667
1
LCD
0
POLYLINE
8
0
66
1
40
0.016000
41
0.016000
0
VERTEX
8
0
10
-0.290000
20
0.230000
0
VERTEX
8
0
10
-0.090000
20
0.230000
0
VERTEX
8
0
10
-0.090000
20
0.930000
0
VERTEX
8
0
10
-0.290000
20
0.930000
0
VERTEX
8
0
10
-0.290000
20
0.230000
0
SEQEND
8
0
0
POLYLINE
8
0
66
1
40
0.016000
41
0.016000
0
VERTEX
8
0
10
-0.220000
20
0.830000
0
VERTEX
8
0
10
-0.290000
20
0.830000
0
SEQEND
8
0
0
CIRCLE
8
0
10
-0.190000
20
0.830000
40
0.030000
0
POLYLINE
8
0
66
1
40
0.016000
41
0.016000
0
VERTEX
8
0
10
-0.220000
20
0.730000
0
VERTEX
8
0
10
-0.290000
20
0.730000
0
SEQEND
8
0
0
CIRCLE
8
0
10
-0.190000
20
0.730000
40
0.030000
0
POLYLINE
8
0
66
1
40
0.016000
41
0.016000
0
VERTEX
8
0
10
-0.220000
20
0.630000
0
VERTEX
8
0
10
-0.290000
20
0.630000
0
SEQEND
8
0
0
CIRCLE
8
0
10
-0.190000
20
0.630000
40
0.030000
0
POLYLINE
8
0
66
1
40
0.016000
41
0.016000
0
VERTEX
8
0
10
-0.220000
20
0.530000
0
VERTEX
8
0
10
-0.290000
20
0.530000
0
SEQEND
8
0
0
CIRCLE
8
0
10
-0.190000
20
0.530000
40
0.030000
0
POLYLINE
8
0
66
1
40
0.016000
41
0.016000
0
VERTEX
8
0
10
-0.220000
20
0.430000
0
VERTEX
8
0
10
-0.290000
20
0.430000
0
SEQEND
8
0
0
CIRCLE
8
0
10
-0.190000
20
0.430000
40
0.030000
0
POLYLINE
8
0
66
1
40
0.016000
41
0.016000
0
VERTEX
8
0
10
-0.220000
20
0.330000
0
VERTEX
8
0
10
-0.290000
20
0.330000
0
SEQEND
8
0
0
CIRCLE
8
0
10
-0.190000
20
0.330000
40
0.030000
0
POLYLINE
8
0
66
1
40
0.016000
41
0.016000
0
VERTEX
8
0
10
-0.490000
20
0.830000
0
VERTEX
8
0
10
-0.290000
20
0.830000
0
SEQEND
8
0
0
TEXT
8
0
10
-0.470000
20
0.840000
40
0.080000
41
1.000000
1
1
0
POLYLINE
8
0
66
1
40
0.016000
41
0.016000
0
VERTEX
8
0
10
-0.490000
20
0.730000
0
VERTEX
8
0
10
-0.290000
20
0.730000
0
SEQEND
8
0
0
TEXT
8
0
10
-0.470000
20
0.740000
40
0.080000
41
1.000000
1
2
0
POLYLINE
8
0
66
1
40
0.016000
41
0.016000
0
VERTEX
8
0
10
-0.490000
20
0.630000
0
VERTEX
8
0
10
-0.290000
20
0.630000
0
SEQEND
8
0
0
TEXT
8
0
10
-0.470000
20
0.640000
40
0.080000
41
1.000000
1
3
0
POLYLINE
8
0
66
1
40
0.016000
41
0.016000
0
VERTEX
8
0
10
-0.490000
20
0.530000
0
VERTEX
8
0
10
-0.290000
20
0.530000
0
SEQEND
8
0
0
TEXT
8
0
10
-0.470000
20
0.540000
40
0.080000
41
1.000000
1
4
0
POLYLINE
8
0
66
1
40
0.016000
41
0.016000
0
VERTEX
8
0
10
-0.490000
20
0.430000
0
VERTEX
8
0
10
-0.290000
20
0.430000
0
SEQEND
8
0
0
TEXT
8
0
10
-0.470000
20
0.440000
40
0.080000
41
1.000000
1
5
0
POLYLINE
8
0
66
1
40
0.016000
41
0.016000
0
VERTEX
8
0
10
-0.490000
20
0.330000
0
VERTEX
8
0
10
-0.290000
20
0.330000
0
SEQEND
8
0
0
TEXT
8
0
10
-0.470000
20
0.340000
40
0.080000
41
1.000000
1
6
0
TEXT
8
0
10
-0.298000
20
0.953000
40
0.120000
41
0.666667
1
HC-05
0
POLYLINE
8
0
66
1
40
0.016000
41
0.016000
0
VERTEX
8
0
10
-2.170000
20
-1.370000
0
VERTEX
8
0
10
-1.970000
20
-1.370000
0
VERTEX
8
0
10
-1.970000
20
-1.070000
0
VERTEX
8
0
10
-2.170000
20
-1.070000
0
VERTEX
8
0
10
-2.170000
20
-1.370000
0
SEQEND
8
0
0
POLYLINE
8
0
66
1
40
0.016000
41
0.016000
0
VERTEX
8
0
10
-2.100000
20
-1.170000
0
VERTEX
8
0
10
-2.170000
20
-1.170000
0
SEQEND
8
0
0
CIRCLE
8
0
10
-2.070000
20
-1.170000
40
0.030000
0
POLYLINE
8
0
66
1
40
0.016000
41
0.016000
0
VERTEX
8
0
10
-2.100000
20
-1.270000
0
VERTEX
8
0
10
-2.170000
20
-1.270000
0
SEQEND
8
0
0
CIRCLE
8
0
10
-2.070000
20
-1.270000
40
0.030000
0
POLYLINE
8
0
66
1
40
0.016000
41
0.016000
0
VERTEX
8
0
10
-2.370000
20
-1.170000
0
VERTEX
8
0
10
-2.170000
20
-1.170000
0
SEQEND
8
0
0
TEXT
8
0
10
-2.350000
20
-1.160000
40
0.080000
41
1.000000
1
1
0
POLYLINE
8
0
66
1
40
0.016000
41
0.016000
0
VERTEX
8
0
10
-2.370000
20
-1.270000
0
VERTEX
8
0
10
-2.170000
20
-1.270000
0
SEQEND
8
0
0
TEXT
8
0
10
-2.350000
20
-1.260000
40
0.080000
41
1.000000
1
2
0
TEXT
8
0
10
-2.318000
20
-1.007000
40
0.120000
41
0.666667
1
SUPPLY
0
POLYLINE
8
0
66
1
40
0.016000
41
0.016000
0
VERTEX
8
0
10
0.830000
20
-1.290000
0
VERTEX
8
0
10
0.610000
20
-1.290000
0
VERTEX
8
0
10
0.480000
20
-1.160000
0
VERTEX
8
0
10
-0.240000
20
-1.170000
0
VERTEX
8
0
10
-0.350000
20
-1.290000
0
VERTEX
8
0
10
-0.620000
20
-1.290000
0
VERTEX
8
0
10
-0.630000
20
-3.810000
0
VERTEX
8
0
10
0.830000
20
-3.810000
0
VERTEX
8
0
10
0.830000
20
-1.290000
0
SEQEND
8
0
0
POLYLINE
8
0
66
1
40
0.016000
41
0.016000
0
VERTEX
8
0
10
0.400000
20
-2.300000
0
VERTEX
8
0
10
0.040000
20
-2.660000
0
VERTEX
8
0
10
-0.330000
20
-2.300000
0
VERTEX
8
0
10
0.030000
20
-1.930000
0
VERTEX
8
0
10
0.400000
20
-2.300000
0
SEQEND
8
0
0
TEXT
8
0
10
-0.030000
20
-1.910000
40
0.080000
41
1.000000
50
-90.000000
1
ATMEGA328P
0
TEXT
8
0
10
0.070000
20
-2.110000
40
0.080000
41
1.000000
50
-90.000000
1
ATMEL
0
TEXT
8
0
10
0.418000
20
-1.210000
40
0.144000
41
0.555556
50
270.000000
1
smartembeddedfriends.blogspot.com
0
POLYLINE
8
0
66
1
40
0.016000
41
0.016000
0
VERTEX
8
0
10
0.380000
20
-2.370000
0
VERTEX
8
0
10
0.110000
20
-2.640000
0
VERTEX
8
0
10
0.080000
20
-2.610000
0
VERTEX
8
0
10
0.350000
20
-2.340000
0
VERTEX
8
0
10
0.380000
20
-2.370000
0
SEQEND
8
0
0
POLYLINE
8
0
66
1
40
0.016000
41
0.016000
0
VERTEX
8
0
10
-0.030000
20
-1.990000
0
VERTEX
8
0
10
-0.300000
20
-2.260000
0
VERTEX
8
0
10
-0.330000
20
-2.230000
0
VERTEX
8
0
10
-0.060000
20
-1.960000
0
VERTEX
8
0
10
-0.030000
20
-1.990000
0
SEQEND
8
0
0
POLYLINE
8
0
66
1
40
0.016000
41
0.016000
0
VERTEX
8
0
10
0.020000
20
-2.630000
0
VERTEX
8
0
10
-0.010000
20
-2.660000
0
VERTEX
8
0
10
-0.310000
20
-2.360000
0
VERTEX
8
0
10
-0.280000
20
-2.330000
0
VERTEX
8
0
10
0.020000
20
-2.630000
0
SEQEND
8
0
0
POLYLINE
8
0
66
1
40
0.016000
41
0.016000
0
VERTEX
8
0
10
0.390000
20
-2.230000
0
VERTEX
8
0
10
0.360000
20
-2.260000
0
VERTEX
8
0
10
0.060000
20
-1.960000
0
VERTEX
8
0
10
0.090000
20
-1.930000
0
VERTEX
8
0
10
0.390000
20
-2.230000
0
SEQEND
8
0
0
POLYLINE
8
0
66
1
40
0.016000
41
0.016000
0
VERTEX
8
0
10
-0.170000
20
-1.620000
0
VERTEX
8
0
10
0.190000
20
-1.620000
0
VERTEX
8
0
10
0.190000
20
-1.410000
0
VERTEX
8
0
10
-0.170000
20
-1.410000
0
VERTEX
8
0
10
-0.170000
20
-1.620000
0
SEQEND
8
0
0
CIRCLE
8
0
10
0.030000
20
-1.520000
40
0.060828
0
TEXT
8
0
10
-0.340000
20
-3.420000
40
0.080000
41
1.000000
50
180.000000
1
D12
0
POLYLINE
8
0
66
1
40
0.002000
41
0.002000
0
VERTEX
8
0
10
0.580000
20
-3.140000
0
VERTEX
8
0
10
0.610000
20
-3.150000
0
SEQEND
8
0
0
CIRCLE
8
0
10
0.730000
20
-1.410000
40
0.072426
0
TEXT
8
0
10
-0.340000
20
-3.250000
40
0.080000
41
1.000000
50
180.000000
1
D11
0
TEXT
8
0
10
-0.340000
20
-3.110000
40
0.080000
41
1.000000
50
180.000000
1
D10
0
TEXT
8
0
10
-0.380000
20
-2.960000
40
0.080000
41
1.000000
50
180.000000
1
D9
0
TEXT
8
0
10
-0.380000
20
-2.810000
40
0.080000
41
1.000000
50
180.000000
1
D8
0
TEXT
8
0
10
-0.380000
20
-2.660000
40
0.080000
41
1.000000
50
180.000000
1
D7
0
TEXT
8
0
10
-0.380000
20
-2.510000
40
0.080000
41
1.000000
50
180.000000
1
D6
0
TEXT
8
0
10
-0.380000
20
-2.360000
40
0.080000
41
1.000000
50
180.000000
1
D5
0
TEXT
8
0
10
-0.380000
20
-2.210000
40
0.080000
41
1.000000
50
180.000000
1
D4
0
TEXT
8
0
10
-0.380000
20
-2.060000
40
0.080000
41
1.000000
50
180.000000
1
D3
0
TEXT
8
0
10
-0.380000
20
-1.910000
40
0.080000
41
1.000000
50
180.000000
1
D2
0
TEXT
8
0
10
-0.090000
20
-1.760000
40
0.080000
41
1.000000
50
180.000000
1
RX / D0
0
TEXT
8
0
10
-0.050000
20
-1.600000
40
0.080000
41
1.000000
50
180.000000
1
TX /  D1
0
TEXT
8
0
10
0.740000
20
-1.590000
40
0.080000
41
1.000000
50
180.000000
1
GND
0
TEXT
8
0
10
0.760000
20
-1.760000
40
0.080000
41
1.000000
50
180.000000
1
RST
0
TEXT
8
0
10
0.750000
20
-1.910000
40
0.080000
41
1.000000
50
180.000000
1
5V
0
TEXT
8
0
10
0.750000
20
-2.060000
40
0.080000
41
1.000000
50
180.000000
1
A7
0
TEXT
8
0
10
0.750000
20
-2.220000
40
0.080000
41
1.000000
50
180.000000
1
A6
0
TEXT
8
0
10
0.750000
20
-2.360000
40
0.080000
41
1.000000
50
180.000000
1
A5
0
TEXT
8
0
10
0.750000
20
-2.510000
40
0.080000
41
1.000000
50
180.000000
1
A4
0
TEXT
8
0
10
0.750000
20
-2.660000
40
0.080000
41
1.000000
50
180.000000
1
A3
0
TEXT
8
0
10
0.750000
20
-2.810000
40
0.080000
41
1.000000
50
180.000000
1
A2
0
TEXT
8
0
10
0.740000
20
-2.960000
40
0.080000
41
1.000000
50
180.000000
1
A1
0
TEXT
8
0
10
0.740000
20
-3.110000
40
0.080000
41
1.000000
50
180.000000
1
A0
0
TEXT
8
0
10
0.770000
20
-3.260000
40
0.080000
41
1.000000
50
180.000000
1
REF
0
TEXT
8
0
10
0.770000
20
-3.420000
40
0.080000
41
1.000000
50
180.000000
1
D13
0
CIRCLE
8
0
10
-0.570000
20
-3.290000
40
0.025620
0
CIRCLE
8
0
10
-0.570000
20
-3.460000
40
0.025620
0
CIRCLE
8
0
10
-0.570000
20
-3.150000
40
0.025620
0
CIRCLE
8
0
10
-0.570000
20
-3.000000
40
0.025620
0
CIRCLE
8
0
10
-0.570000
20
-2.700000
40
0.025620
0
CIRCLE
8
0
10
-0.570000
20
-2.850000
40
0.025620
0
CIRCLE
8
0
10
-0.570000
20
-2.550000
40
0.025620
0
CIRCLE
8
0
10
-0.570000
20
-2.400000
40
0.025620
0
CIRCLE
8
0
10
-0.570000
20
-2.100000
40
0.025620
0
CIRCLE
8
0
10
-0.570000
20
-2.250000
40
0.025620
0
CIRCLE
8
0
10
-0.570000
20
-1.950000
40
0.025620
0
CIRCLE
8
0
10
-0.570000
20
-1.800000
40
0.025620
0
CIRCLE
8
0
10
-0.570000
20
-1.650000
40
0.025620
0
CIRCLE
8
0
10
0.760000
20
-3.460000
40
0.025620
0
CIRCLE
8
0
10
0.760000
20
-3.300000
40
0.025620
0
CIRCLE
8
0
10
0.760000
20
-3.150000
40
0.025620
0
CIRCLE
8
0
10
0.770000
20
-2.850000
40
0.025620
0
CIRCLE
8
0
10
0.760000
20
-3.000000
40
0.025620
0
CIRCLE
8
0
10
0.770000
20
-2.700000
40
0.025620
0
CIRCLE
8
0
10
0.770000
20
-2.550000
40
0.025620
0
CIRCLE
8
0
10
0.770000
20
-2.260000
40
0.025620
0
CIRCLE
8
0
10
0.770000
20
-2.400000
40
0.025620
0
CIRCLE
8
0
10
0.770000
20
-2.100000
40
0.025620
0
CIRCLE
8
0
10
0.770000
20
-1.950000
40
0.025620
0
CIRCLE
8
0
10
0.770000
20
-1.640000
40
0.025620
0
CIRCLE
8
0
10
0.770000
20
-1.800000
40
0.025620
0
CIRCLE
8
0
10
-0.510000
20
-1.430000
40
0.072426
0
CIRCLE
8
0
10
-0.060000
20
-3.730000
40
0.022426
0
CIRCLE
8
0
10
0.250000
20
-3.730000
40
0.022426
0
CIRCLE
8
0
10
-0.060000
20
-3.550000
40
0.022426
0
CIRCLE
8
0
10
0.250000
20
-3.550000
40
0.022426
0
POLYLINE
8
0
66
1
40
0.005000
41
0.005000
0
VERTEX
8
0
10
-0.060000
20
-3.900000
0
VERTEX
8
0
10
0.250000
20
-3.900000
0
VERTEX
8
0
10
0.250000
20
-3.520000
0
VERTEX
8
0
10
-0.060000
20
-3.520000
0
VERTEX
8
0
10
-0.060000
20
-3.900000
0
SEQEND
8
0
0
POLYLINE
8
0
66
1
40
0.005000
41
0.005000
0
VERTEX
8
0
10
-0.030000
20
-3.890000
0
VERTEX
8
0
10
0.220000
20
-3.890000
0
VERTEX
8
0
10
0.220000
20
-3.560000
0
VERTEX
8
0
10
-0.030000
20
-3.560000
0
VERTEX
8
0
10
-0.030000
20
-3.890000
0
SEQEND
8
0
0
POLYLINE
8
0
66
1
40
0.002000
41
0.002000
0
VERTEX
8
0
10
0.250000
20
-3.520000
0
VERTEX
8
0
10
0.220000
20
-3.560000
0
SEQEND
8
0
0
POLYLINE
8
0
66
1
40
0.002000
41
0.002000
0
VERTEX
8
0
10
-0.030000
20
-3.560000
0
VERTEX
8
0
10
-0.060000
20
-3.520000
0
SEQEND
8
0
0
POLYLINE
8
0
66
1
40
0.002000
41
0.002000
0
VERTEX
8
0
10
0.220000
20
-3.890000
0
VERTEX
8
0
10
0.250000
20
-3.900000
0
SEQEND
8
0
0
POLYLINE
8
0
66
1
40
0.002000
41
0.002000
0
VERTEX
8
0
10
-0.030000
20
-3.890000
0
VERTEX
8
0
10
-0.060000
20
-3.900000
0
SEQEND
8
0
0
POLYLINE
8
0
66
1
40
0.016000
41
0.016000
0
VERTEX
8
0
10
0.180000
20
-3.600000
0
VERTEX
8
0
10
0.120000
20
-3.600000
0
VERTEX
8
0
10
0.120000
20
-3.630000
0
VERTEX
8
0
10
0.070000
20
-3.630000
0
SEQEND
8
0
0
POLYLINE
8
0
66
1
40
0.016000
41
0.016000
0
VERTEX
8
0
10
0.070000
20
-3.600000
0
VERTEX
8
0
10
0.070000
20
-3.630000
0
SEQEND
8
0
0
POLYLINE
8
0
66
1
40
0.016000
41
0.016000
0
VERTEX
8
0
10
0.070000
20
-3.600000
0
VERTEX
8
0
10
0.010000
20
-3.600000
0
SEQEND
8
0
0
POLYLINE
8
0
66
1
40
0.008000
41
0.008000
0
VERTEX
8
0
10
0.160000
20
-3.570000
0
VERTEX
8
0
10
0.030000
20
-3.570000
0
SEQEND
8
0
0
POLYLINE
8
0
66
1
40
0.016000
41
0.016000
0
VERTEX
8
0
10
0.030000
20
-3.720000
0
VERTEX
8
0
10
0.030000
20
-3.870000
0
VERTEX
8
0
10
0.000000
20
-3.870000
0
VERTEX
8
0
10
0.000000
20
-3.720000
0
SEQEND
8
0
0
POLYLINE
8
0
66
1
40
0.016000
41
0.016000
0
VERTEX
8
0
10
0.190000
20
-3.720000
0
VERTEX
8
0
10
0.190000
20
-3.870000
0
VERTEX
8
0
10
0.160000
20
-3.870000
0
VERTEX
8
0
10
0.160000
20
-3.720000
0
SEQEND
8
0
0
POLYLINE
8
0
66
1
40
0.016000
41
0.016000
0
VERTEX
8
0
10
0.120000
20
-3.670000
0
VERTEX
8
0
10
0.070000
20
-3.670000
0
VERTEX
8
0
10
0.060000
20
-3.860000
0
SEQEND
8
0
0
POLYLINE
8
0
66
1
40
0.016000
41
0.016000
0
VERTEX
8
0
10
0.120000
20
-3.680000
0
VERTEX
8
0
10
0.130000
20
-3.860000
0
SEQEND
8
0
0
TEXT
8
0
10
0.300000
20
-3.108000
40
0.144000
41
0.555556
50
180.000000
1
Arduino
0
TEXT
8
0
10
0.190000
20
-2.928000
40
0.144000
41
0.555556
50
180.000000
1
Nano
0
CIRCLE
8
0
10
-0.480000
20
-3.690000
40
0.072426
0
CIRCLE
8
0
10
0.690000
20
-3.700000
40
0.072426
0
POLYLINE
8
0
66
1
40
0.016000
41
0.016000
0
VERTEX
8
0
10
-0.800000
20
-1.800000
0
VERTEX
8
0
10
-0.600000
20
-1.800000
0
SEQEND
8
0
0
TEXT
8
0
10
-0.780000
20
-1.890000
40
0.080000
41
1.000000
1
0
0
POLYLINE
8
0
66
1
40
0.016000
41
0.016000
0
VERTEX
8
0
10
-0.800000
20
-1.650000
0
VERTEX
8
0
10
-0.600000
20
-1.650000
0
SEQEND
8
0
0
TEXT
8
0
10
-0.780000
20
-1.740000
40
0.080000
41
1.000000
1
1
0
POLYLINE
8
0
66
1
40
0.016000
41
0.016000
0
VERTEX
8
0
10
-0.800000
20
-1.950000
0
VERTEX
8
0
10
-0.600000
20
-1.950000
0
SEQEND
8
0
0
TEXT
8
0
10
-0.780000
20
-2.040000
40
0.080000
41
1.000000
1
2
0
POLYLINE
8
0
66
1
40
0.016000
41
0.016000
0
VERTEX
8
0
10
-0.800000
20
-2.100000
0
VERTEX
8
0
10
-0.600000
20
-2.100000
0
SEQEND
8
0
0
TEXT
8
0
10
-0.780000
20
-2.190000
40
0.080000
41
1.000000
1
3
0
POLYLINE
8
0
66
1
40
0.016000
41
0.016000
0
VERTEX
8
0
10
-0.800000
20
-2.250000
0
VERTEX
8
0
10
-0.600000
20
-2.250000
0
SEQEND
8
0
0
TEXT
8
0
10
-0.780000
20
-2.340000
40
0.080000
41
1.000000
1
4
0
POLYLINE
8
0
66
1
40
0.016000
41
0.016000
0
VERTEX
8
0
10
-0.800000
20
-2.400000
0
VERTEX
8
0
10
-0.600000
20
-2.400000
0
SEQEND
8
0
0
TEXT
8
0
10
-0.780000
20
-2.490000
40
0.080000
41
1.000000
1
5
0
POLYLINE
8
0
66
1
40
0.016000
41
0.016000
0
VERTEX
8
0
10
-0.800000
20
-2.550000
0
VERTEX
8
0
10
-0.600000
20
-2.550000
0
SEQEND
8
0
0
TEXT
8
0
10
-0.780000
20
-2.640000
40
0.080000
41
1.000000
1
6
0
POLYLINE
8
0
66
1
40
0.016000
41
0.016000
0
VERTEX
8
0
10
-0.800000
20
-2.700000
0
VERTEX
8
0
10
-0.600000
20
-2.700000
0
SEQEND
8
0
0
TEXT
8
0
10
-0.780000
20
-2.790000
40
0.080000
41
1.000000
1
7
0
POLYLINE
8
0
66
1
40
0.016000
41
0.016000
0
VERTEX
8
0
10
-0.800000
20
-2.850000
0
VERTEX
8
0
10
-0.600000
20
-2.850000
0
SEQEND
8
0
0
TEXT
8
0
10
-0.780000
20
-2.940000
40
0.080000
41
1.000000
1
8
0
POLYLINE
8
0
66
1
40
0.016000
41
0.016000
0
VERTEX
8
0
10
-0.800000
20
-3.000000
0
VERTEX
8
0
10
-0.600000
20
-3.000000
0
SEQEND
8
0
0
TEXT
8
0
10
-0.780000
20
-3.090000
40
0.080000
41
1.000000
1
9
0
POLYLINE
8
0
66
1
40
0.016000
41
0.016000
0
VERTEX
8
0
10
-0.800000
20
-3.150000
0
VERTEX
8
0
10
-0.600000
20
-3.150000
0
SEQEND
8
0
0
TEXT
8
0
10
-0.860000
20
-3.240000
40
0.080000
41
1.000000
1
10
0
POLYLINE
8
0
66
1
40
0.016000
41
0.016000
0
VERTEX
8
0
10
-0.800000
20
-3.290000
0
VERTEX
8
0
10
-0.600000
20
-3.290000
0
SEQEND
8
0
0
TEXT
8
0
10
-0.860000
20
-3.380000
40
0.080000
41
1.000000
1
11
0
POLYLINE
8
0
66
1
40
0.016000
41
0.016000
0
VERTEX
8
0
10
-0.800000
20
-3.460000
0
VERTEX
8
0
10
-0.600000
20
-3.460000
0
SEQEND
8
0
0
TEXT
8
0
10
-0.860000
20
-3.550000
40
0.080000
41
1.000000
1
12
0
POLYLINE
8
0
66
1
40
0.016000
41
0.016000
0
VERTEX
8
0
10
0.990000
20
-3.460000
0
VERTEX
8
0
10
0.790000
20
-3.460000
0
SEQEND
8
0
0
TEXT
8
0
10
0.890000
20
-3.550000
40
0.080000
41
1.000000
1
13
0
POLYLINE
8
0
66
1
40
0.016000
41
0.016000
0
VERTEX
8
0
10
0.990000
20
-3.300000
0
VERTEX
8
0
10
0.790000
20
-3.300000
0
SEQEND
8
0
0
POLYLINE
8
0
66
1
40
0.016000
41
0.016000
0
VERTEX
8
0
10
1.000000
20
-2.400000
0
VERTEX
8
0
10
0.800000
20
-2.400000
0
SEQEND
8
0
0
TEXT
8
0
10
0.900000
20
-2.490000
40
0.080000
41
1.000000
1
A5
0
POLYLINE
8
0
66
1
40
0.016000
41
0.016000
0
VERTEX
8
0
10
1.000000
20
-2.550000
0
VERTEX
8
0
10
0.800000
20
-2.550000
0
SEQEND
8
0
0
TEXT
8
0
10
0.900000
20
-2.640000
40
0.080000
41
1.000000
1
A4
0
POLYLINE
8
0
66
1
40
0.016000
41
0.016000
0
VERTEX
8
0
10
1.000000
20
-2.700000
0
VERTEX
8
0
10
0.800000
20
-2.700000
0
SEQEND
8
0
0
TEXT
8
0
10
0.900000
20
-2.790000
40
0.080000
41
1.000000
1
A3
0
POLYLINE
8
0
66
1
40
0.016000
41
0.016000
0
VERTEX
8
0
10
1.000000
20
-2.850000
0
VERTEX
8
0
10
0.800000
20
-2.850000
0
SEQEND
8
0
0
TEXT
8
0
10
0.900000
20
-2.940000
40
0.080000
41
1.000000
1
A2
0
POLYLINE
8
0
66
1
40
0.016000
41
0.016000
0
VERTEX
8
0
10
0.990000
20
-3.000000
0
VERTEX
8
0
10
0.790000
20
-3.000000
0
SEQEND
8
0
0
TEXT
8
0
10
0.890000
20
-3.090000
40
0.080000
41
1.000000
1
A1
0
POLYLINE
8
0
66
1
40
0.016000
41
0.016000
0
VERTEX
8
0
10
0.990000
20
-3.150000
0
VERTEX
8
0
10
0.790000
20
-3.150000
0
SEQEND
8
0
0
TEXT
8
0
10
0.890000
20
-3.240000
40
0.080000
41
1.000000
1
A0
0
POLYLINE
8
0
66
1
40
0.016000
41
0.016000
0
VERTEX
8
0
10
1.000000
20
-1.800000
0
VERTEX
8
0
10
0.800000
20
-1.800000
0
SEQEND
8
0
0
POLYLINE
8
0
66
1
40
0.016000
41
0.016000
0
VERTEX
8
0
10
1.000000
20
-1.950000
0
VERTEX
8
0
10
0.800000
20
-1.950000
0
SEQEND
8
0
0
POLYLINE
8
0
66
1
40
0.016000
41
0.016000
0
VERTEX
8
0
10
1.000000
20
-1.640000
0
VERTEX
8
0
10
0.800000
20
-1.640000
0
SEQEND
8
0
0
POLYLINE
8
0
66
1
40
0.016000
41
0.016000
0
VERTEX
8
0
10
1.000000
20
-2.260000
0
VERTEX
8
0
10
0.800000
20
-2.260000
0
SEQEND
8
0
0
TEXT
8
0
10
0.900000
20
-2.350000
40
0.080000
41
1.000000
1
A6
0
POLYLINE
8
0
66
1
40
0.016000
41
0.016000
0
VERTEX
8
0
10
1.000000
20
-2.100000
0
VERTEX
8
0
10
0.800000
20
-2.100000
0
SEQEND
8
0
0
TEXT
8
0
10
0.900000
20
-2.190000
40
0.080000
41
1.000000
1
A7
0
TEXT
8
0
10
-0.638000
20
-1.137000
40
0.120000
41
0.666667
1
NANO
0
TEXT
8
0
10
-0.638000
20
-3.992500
40
0.080000
41
1.000000
1
ARDUINO NANO SM_ARU
0
POLYLINE
8
0
66
1
40
0.016000
41
0.016000
0
VERTEX
8
0
10
1.730000
20
-2.110000
0
VERTEX
8
0
10
1.680000
20
-2.210000
0
VERTEX
8
0
10
1.630000
20
-2.110000
0
VERTEX
8
0
10
1.730000
20
-2.110000
0
SEQEND
8
0
0
POLYLINE
8
0
66
1
40
0.016000
41
0.016000
0
VERTEX
8
0
10
1.680000
20
-2.010000
0
VERTEX
8
0
10
1.680000
20
-2.210000
0
SEQEND
8
0
0
TEXT
8
0
10
1.540000
20
-2.350000
40
0.080000
41
1.000000
1
VCC
0
POLYLINE
8
0
66
1
40
0.016000
41
0.016000
0
VERTEX
8
0
10
1.260000
20
-1.510000
0
VERTEX
8
0
10
1.260000
20
-1.410000
0
SEQEND
8
0
0
POLYLINE
8
0
66
1
40
0.016000
41
0.016000
0
VERTEX
8
0
10
1.360000
20
-1.410000
0
VERTEX
8
0
10
1.160000
20
-1.410000
0
SEQEND
8
0
0
POLYLINE
8
0
66
1
40
0.016000
41
0.016000
0
VERTEX
8
0
10
1.310000
20
-1.360000
0
VERTEX
8
0
10
1.210000
20
-1.360000
0
SEQEND
8
0
0
POLYLINE
8
0
66
1
40
0.016000
41
0.016000
0
VERTEX
8
0
10
1.270000
20
-1.310000
0
VERTEX
8
0
10
1.250000
20
-1.310000
0
SEQEND
8
0
0
POLYLINE
8
0
66
1
40
0.016000
41
0.016000
0
VERTEX
8
0
10
3.340000
20
-3.320000
0
VERTEX
8
0
10
3.540000
20
-3.320000
0
VERTEX
8
0
10
3.540000
20
-1.720000
0
VERTEX
8
0
10
3.340000
20
-1.720000
0
VERTEX
8
0
10
3.340000
20
-3.320000
0
SEQEND
8
0
0
POLYLINE
8
0
66
1
40
0.016000
41
0.016000
0
VERTEX
8
0
10
3.470000
20
-3.220000
0
VERTEX
8
0
10
3.540000
20
-3.220000
0
SEQEND
8
0
0
CIRCLE
8
0
10
3.440000
20
-3.120000
40
0.030000
0
POLYLINE
8
0
66
1
40
0.016000
41
0.016000
0
VERTEX
8
0
10
3.470000
20
-3.120000
0
VERTEX
8
0
10
3.540000
20
-3.120000
0
SEQEND
8
0
0
CIRCLE
8
0
10
3.440000
20
-3.020000
40
0.030000
0
POLYLINE
8
0
66
1
40
0.016000
41
0.016000
0
VERTEX
8
0
10
3.470000
20
-3.020000
0
VERTEX
8
0
10
3.540000
20
-3.020000
0
SEQEND
8
0
0
CIRCLE
8
0
10
3.440000
20
-2.920000
40
0.030000
0
POLYLINE
8
0
66
1
40
0.016000
41
0.016000
0
VERTEX
8
0
10
3.470000
20
-2.920000
0
VERTEX
8
0
10
3.540000
20
-2.920000
0
SEQEND
8
0
0
CIRCLE
8
0
10
3.440000
20
-2.820000
40
0.030000
0
POLYLINE
8
0
66
1
40
0.016000
41
0.016000
0
VERTEX
8
0
10
3.470000
20
-2.820000
0
VERTEX
8
0
10
3.540000
20
-2.820000
0
SEQEND
8
0
0
CIRCLE
8
0
10
3.440000
20
-2.720000
40
0.030000
0
POLYLINE
8
0
66
1
40
0.016000
41
0.016000
0
VERTEX
8
0
10
3.470000
20
-2.720000
0
VERTEX
8
0
10
3.540000
20
-2.720000
0
SEQEND
8
0
0
CIRCLE
8
0
10
3.440000
20
-2.620000
40
0.030000
0
POLYLINE
8
0
66
1
40
0.016000
41
0.016000
0
VERTEX
8
0
10
3.470000
20
-2.620000
0
VERTEX
8
0
10
3.540000
20
-2.620000
0
SEQEND
8
0
0
CIRCLE
8
0
10
3.440000
20
-2.520000
40
0.030000
0
POLYLINE
8
0
66
1
40
0.016000
41
0.016000
0
VERTEX
8
0
10
3.470000
20
-2.520000
0
VERTEX
8
0
10
3.540000
20
-2.520000
0
SEQEND
8
0
0
CIRCLE
8
0
10
3.440000
20
-2.420000
40
0.030000
0
POLYLINE
8
0
66
1
40
0.016000
41
0.016000
0
VERTEX
8
0
10
3.470000
20
-2.420000
0
VERTEX
8
0
10
3.540000
20
-2.420000
0
SEQEND
8
0
0
CIRCLE
8
0
10
3.440000
20
-2.320000
40
0.030000
0
POLYLINE
8
0
66
1
40
0.016000
41
0.016000
0
VERTEX
8
0
10
3.470000
20
-2.320000
0
VERTEX
8
0
10
3.540000
20
-2.320000
0
SEQEND
8
0
0
CIRCLE
8
0
10
3.440000
20
-2.220000
40
0.030000
0
POLYLINE
8
0
66
1
40
0.016000
41
0.016000
0
VERTEX
8
0
10
3.470000
20
-2.220000
0
VERTEX
8
0
10
3.540000
20
-2.220000
0
SEQEND
8
0
0
CIRCLE
8
0
10
3.440000
20
-2.120000
40
0.030000
0
POLYLINE
8
0
66
1
40
0.016000
41
0.016000
0
VERTEX
8
0
10
3.470000
20
-2.120000
0
VERTEX
8
0
10
3.540000
20
-2.120000
0
SEQEND
8
0
0
CIRCLE
8
0
10
3.440000
20
-2.020000
40
0.030000
0
POLYLINE
8
0
66
1
40
0.016000
41
0.016000
0
VERTEX
8
0
10
3.470000
20
-2.020000
0
VERTEX
8
0
10
3.540000
20
-2.020000
0
SEQEND
8
0
0
CIRCLE
8
0
10
3.440000
20
-1.920000
40
0.030000
0
POLYLINE
8
0
66
1
40
0.016000
41
0.016000
0
VERTEX
8
0
10
3.470000
20
-1.920000
0
VERTEX
8
0
10
3.540000
20
-1.920000
0
SEQEND
8
0
0
CIRCLE
8
0
10
3.440000
20
-1.820000
40
0.030000
0
POLYLINE
8
0
66
1
40
0.016000
41
0.016000
0
VERTEX
8
0
10
3.470000
20
-1.820000
0
VERTEX
8
0
10
3.540000
20
-1.820000
0
SEQEND
8
0
0
CIRCLE
8
0
10
3.440000
20
-3.220000
40
0.030000
0
POLYLINE
8
0
66
1
40
0.016000
41
0.016000
0
VERTEX
8
0
10
3.740000
20
-3.220000
0
VERTEX
8
0
10
3.540000
20
-3.220000
0
SEQEND
8
0
0
TEXT
8
0
10
3.640000
20
-3.210000
40
0.080000
41
1.000000
1
1
0
POLYLINE
8
0
66
1
40
0.016000
41
0.016000
0
VERTEX
8
0
10
3.740000
20
-3.120000
0
VERTEX
8
0
10
3.540000
20
-3.120000
0
SEQEND
8
0
0
TEXT
8
0
10
3.640000
20
-3.110000
40
0.080000
41
1.000000
1
2
0
POLYLINE
8
0
66
1
40
0.016000
41
0.016000
0
VERTEX
8
0
10
3.740000
20
-3.020000
0
VERTEX
8
0
10
3.540000
20
-3.020000
0
SEQEND
8
0
0
TEXT
8
0
10
3.640000
20
-3.010000
40
0.080000
41
1.000000
1
3
0
POLYLINE
8
0
66
1
40
0.016000
41
0.016000
0
VERTEX
8
0
10
3.740000
20
-2.920000
0
VERTEX
8
0
10
3.540000
20
-2.920000
0
SEQEND
8
0
0
TEXT
8
0
10
3.640000
20
-2.910000
40
0.080000
41
1.000000
1
4
0
POLYLINE
8
0
66
1
40
0.016000
41
0.016000
0
VERTEX
8
0
10
3.740000
20
-2.820000
0
VERTEX
8
0
10
3.540000
20
-2.820000
0
SEQEND
8
0
0
TEXT
8
0
10
3.640000
20
-2.810000
40
0.080000
41
1.000000
1
5
0
POLYLINE
8
0
66
1
40
0.016000
41
0.016000
0
VERTEX
8
0
10
3.740000
20
-2.720000
0
VERTEX
8
0
10
3.540000
20
-2.720000
0
SEQEND
8
0
0
TEXT
8
0
10
3.640000
20
-2.710000
40
0.080000
41
1.000000
1
6
0
POLYLINE
8
0
66
1
40
0.016000
41
0.016000
0
VERTEX
8
0
10
3.740000
20
-2.620000
0
VERTEX
8
0
10
3.540000
20
-2.620000
0
SEQEND
8
0
0
TEXT
8
0
10
3.640000
20
-2.610000
40
0.080000
41
1.000000
1
7
0
POLYLINE
8
0
66
1
40
0.016000
41
0.016000
0
VERTEX
8
0
10
3.740000
20
-2.520000
0
VERTEX
8
0
10
3.540000
20
-2.520000
0
SEQEND
8
0
0
TEXT
8
0
10
3.640000
20
-2.510000
40
0.080000
41
1.000000
1
8
0
POLYLINE
8
0
66
1
40
0.016000
41
0.016000
0
VERTEX
8
0
10
3.740000
20
-2.420000
0
VERTEX
8
0
10
3.540000
20
-2.420000
0
SEQEND
8
0
0
TEXT
8
0
10
3.640000
20
-2.410000
40
0.080000
41
1.000000
1
9
0
POLYLINE
8
0
66
1
40
0.016000
41
0.016000
0
VERTEX
8
0
10
3.740000
20
-2.320000
0
VERTEX
8
0
10
3.540000
20
-2.320000
0
SEQEND
8
0
0
TEXT
8
0
10
3.640000
20
-2.310000
40
0.080000
41
1.000000
1
10
0
POLYLINE
8
0
66
1
40
0.016000
41
0.016000
0
VERTEX
8
0
10
3.740000
20
-2.220000
0
VERTEX
8
0
10
3.540000
20
-2.220000
0
SEQEND
8
0
0
TEXT
8
0
10
3.640000
20
-2.210000
40
0.080000
41
1.000000
1
11
0
POLYLINE
8
0
66
1
40
0.016000
41
0.016000
0
VERTEX
8
0
10
3.740000
20
-2.120000
0
VERTEX
8
0
10
3.540000
20
-2.120000
0
SEQEND
8
0
0
TEXT
8
0
10
3.640000
20
-2.110000
40
0.080000
41
1.000000
1
12
0
POLYLINE
8
0
66
1
40
0.016000
41
0.016000
0
VERTEX
8
0
10
3.740000
20
-2.020000
0
VERTEX
8
0
10
3.540000
20
-2.020000
0
SEQEND
8
0
0
TEXT
8
0
10
3.640000
20
-2.010000
40
0.080000
41
1.000000
1
13
0
POLYLINE
8
0
66
1
40
0.016000
41
0.016000
0
VERTEX
8
0
10
3.740000
20
-1.920000
0
VERTEX
8
0
10
3.540000
20
-1.920000
0
SEQEND
8
0
0
TEXT
8
0
10
3.640000
20
-1.910000
40
0.080000
41
1.000000
1
14
0
POLYLINE
8
0
66
1
40
0.016000
41
0.016000
0
VERTEX
8
0
10
3.740000
20
-1.820000
0
VERTEX
8
0
10
3.540000
20
-1.820000
0
SEQEND
8
0
0
TEXT
8
0
10
3.640000
20
-1.810000
40
0.080000
41
1.000000
1
15
0
TEXT
8
0
10
3.332000
20
-3.418000
40
0.080000
41
1.000000
1
Arduino Nano
0
POLYLINE
8
0
66
1
40
0.016000
41
0.016000
0
VERTEX
8
0
10
2.750000
20
-3.350000
0
VERTEX
8
0
10
2.950000
20
-3.350000
0
VERTEX
8
0
10
2.950000
20
-1.750000
0
VERTEX
8
0
10
2.750000
20
-1.750000
0
VERTEX
8
0
10
2.750000
20
-3.350000
0
SEQEND
8
0
0
POLYLINE
8
0
66
1
40
0.016000
41
0.016000
0
VERTEX
8
0
10
2.820000
20
-1.850000
0
VERTEX
8
0
10
2.750000
20
-1.850000
0
SEQEND
8
0
0
CIRCLE
8
0
10
2.850000
20
-1.950000
40
0.030000
0
POLYLINE
8
0
66
1
40
0.016000
41
0.016000
0
VERTEX
8
0
10
2.820000
20
-1.950000
0
VERTEX
8
0
10
2.750000
20
-1.950000
0
SEQEND
8
0
0
CIRCLE
8
0
10
2.850000
20
-2.050000
40
0.030000
0
POLYLINE
8
0
66
1
40
0.016000
41
0.016000
0
VERTEX
8
0
10
2.820000
20
-2.050000
0
VERTEX
8
0
10
2.750000
20
-2.050000
0
SEQEND
8
0
0
CIRCLE
8
0
10
2.850000
20
-2.150000
40
0.030000
0
POLYLINE
8
0
66
1
40
0.016000
41
0.016000
0
VERTEX
8
0
10
2.820000
20
-2.150000
0
VERTEX
8
0
10
2.750000
20
-2.150000
0
SEQEND
8
0
0
CIRCLE
8
0
10
2.850000
20
-2.250000
40
0.030000
0
POLYLINE
8
0
66
1
40
0.016000
41
0.016000
0
VERTEX
8
0
10
2.820000
20
-2.250000
0
VERTEX
8
0
10
2.750000
20
-2.250000
0
SEQEND
8
0
0
CIRCLE
8
0
10
2.850000
20
-2.350000
40
0.030000
0
POLYLINE
8
0
66
1
40
0.016000
41
0.016000
0
VERTEX
8
0
10
2.820000
20
-2.350000
0
VERTEX
8
0
10
2.750000
20
-2.350000
0
SEQEND
8
0
0
CIRCLE
8
0
10
2.850000
20
-2.450000
40
0.030000
0
POLYLINE
8
0
66
1
40
0.016000
41
0.016000
0
VERTEX
8
0
10
2.820000
20
-2.450000
0
VERTEX
8
0
10
2.750000
20
-2.450000
0
SEQEND
8
0
0
CIRCLE
8
0
10
2.850000
20
-2.550000
40
0.030000
0
POLYLINE
8
0
66
1
40
0.016000
41
0.016000
0
VERTEX
8
0
10
2.820000
20
-2.550000
0
VERTEX
8
0
10
2.750000
20
-2.550000
0
SEQEND
8
0
0
CIRCLE
8
0
10
2.850000
20
-2.650000
40
0.030000
0
POLYLINE
8
0
66
1
40
0.016000
41
0.016000
0
VERTEX
8
0
10
2.820000
20
-2.650000
0
VERTEX
8
0
10
2.750000
20
-2.650000
0
SEQEND
8
0
0
CIRCLE
8
0
10
2.850000
20
-2.750000
40
0.030000
0
POLYLINE
8
0
66
1
40
0.016000
41
0.016000
0
VERTEX
8
0
10
2.820000
20
-2.750000
0
VERTEX
8
0
10
2.750000
20
-2.750000
0
SEQEND
8
0
0
CIRCLE
8
0
10
2.850000
20
-2.850000
40
0.030000
0
POLYLINE
8
0
66
1
40
0.016000
41
0.016000
0
VERTEX
8
0
10
2.820000
20
-2.850000
0
VERTEX
8
0
10
2.750000
20
-2.850000
0
SEQEND
8
0
0
CIRCLE
8
0
10
2.850000
20
-2.950000
40
0.030000
0
POLYLINE
8
0
66
1
40
0.016000
41
0.016000
0
VERTEX
8
0
10
2.820000
20
-2.950000
0
VERTEX
8
0
10
2.750000
20
-2.950000
0
SEQEND
8
0
0
CIRCLE
8
0
10
2.850000
20
-3.050000
40
0.030000
0
POLYLINE
8
0
66
1
40
0.016000
41
0.016000
0
VERTEX
8
0
10
2.820000
20
-3.050000
0
VERTEX
8
0
10
2.750000
20
-3.050000
0
SEQEND
8
0
0
CIRCLE
8
0
10
2.850000
20
-3.150000
40
0.030000
0
POLYLINE
8
0
66
1
40
0.016000
41
0.016000
0
VERTEX
8
0
10
2.820000
20
-3.150000
0
VERTEX
8
0
10
2.750000
20
-3.150000
0
SEQEND
8
0
0
CIRCLE
8
0
10
2.850000
20
-3.250000
40
0.030000
0
POLYLINE
8
0
66
1
40
0.016000
41
0.016000
0
VERTEX
8
0
10
2.820000
20
-3.250000
0
VERTEX
8
0
10
2.750000
20
-3.250000
0
SEQEND
8
0
0
CIRCLE
8
0
10
2.850000
20
-1.850000
40
0.030000
0
POLYLINE
8
0
66
1
40
0.016000
41
0.016000
0
VERTEX
8
0
10
2.550000
20
-1.850000
0
VERTEX
8
0
10
2.750000
20
-1.850000
0
SEQEND
8
0
0
TEXT
8
0
10
2.570000
20
-1.840000
40
0.080000
41
1.000000
1
1
0
POLYLINE
8
0
66
1
40
0.016000
41
0.016000
0
VERTEX
8
0
10
2.550000
20
-1.950000
0
VERTEX
8
0
10
2.750000
20
-1.950000
0
SEQEND
8
0
0
TEXT
8
0
10
2.570000
20
-1.940000
40
0.080000
41
1.000000
1
2
0
POLYLINE
8
0
66
1
40
0.016000
41
0.016000
0
VERTEX
8
0
10
2.550000
20
-2.050000
0
VERTEX
8
0
10
2.750000
20
-2.050000
0
SEQEND
8
0
0
TEXT
8
0
10
2.570000
20
-2.040000
40
0.080000
41
1.000000
1
3
0
POLYLINE
8
0
66
1
40
0.016000
41
0.016000
0
VERTEX
8
0
10
2.550000
20
-2.150000
0
VERTEX
8
0
10
2.750000
20
-2.150000
0
SEQEND
8
0
0
TEXT
8
0
10
2.570000
20
-2.140000
40
0.080000
41
1.000000
1
4
0
POLYLINE
8
0
66
1
40
0.016000
41
0.016000
0
VERTEX
8
0
10
2.550000
20
-2.250000
0
VERTEX
8
0
10
2.750000
20
-2.250000
0
SEQEND
8
0
0
TEXT
8
0
10
2.570000
20
-2.240000
40
0.080000
41
1.000000
1
5
0
POLYLINE
8
0
66
1
40
0.016000
41
0.016000
0
VERTEX
8
0
10
2.550000
20
-2.350000
0
VERTEX
8
0
10
2.750000
20
-2.350000
0
SEQEND
8
0
0
TEXT
8
0
10
2.570000
20
-2.340000
40
0.080000
41
1.000000
1
6
0
POLYLINE
8
0
66
1
40
0.016000
41
0.016000
0
VERTEX
8
0
10
2.550000
20
-2.450000
0
VERTEX
8
0
10
2.750000
20
-2.450000
0
SEQEND
8
0
0
TEXT
8
0
10
2.570000
20
-2.440000
40
0.080000
41
1.000000
1
7
0
POLYLINE
8
0
66
1
40
0.016000
41
0.016000
0
VERTEX
8
0
10
2.550000
20
-2.550000
0
VERTEX
8
0
10
2.750000
20
-2.550000
0
SEQEND
8
0
0
TEXT
8
0
10
2.570000
20
-2.540000
40
0.080000
41
1.000000
1
8
0
POLYLINE
8
0
66
1
40
0.016000
41
0.016000
0
VERTEX
8
0
10
2.550000
20
-2.650000
0
VERTEX
8
0
10
2.750000
20
-2.650000
0
SEQEND
8
0
0
TEXT
8
0
10
2.570000
20
-2.640000
40
0.080000
41
1.000000
1
9
0
POLYLINE
8
0
66
1
40
0.016000
41
0.016000
0
VERTEX
8
0
10
2.550000
20
-2.750000
0
VERTEX
8
0
10
2.750000
20
-2.750000
0
SEQEND
8
0
0
TEXT
8
0
10
2.490000
20
-2.740000
40
0.080000
41
1.000000
1
10
0
POLYLINE
8
0
66
1
40
0.016000
41
0.016000
0
VERTEX
8
0
10
2.550000
20
-2.850000
0
VERTEX
8
0
10
2.750000
20
-2.850000
0
SEQEND
8
0
0
TEXT
8
0
10
2.490000
20
-2.840000
40
0.080000
41
1.000000
1
11
0
POLYLINE
8
0
66
1
40
0.016000
41
0.016000
0
VERTEX
8
0
10
2.550000
20
-2.950000
0
VERTEX
8
0
10
2.750000
20
-2.950000
0
SEQEND
8
0
0
TEXT
8
0
10
2.490000
20
-2.940000
40
0.080000
41
1.000000
1
12
0
POLYLINE
8
0
66
1
40
0.016000
41
0.016000
0
VERTEX
8
0
10
2.550000
20
-3.050000
0
VERTEX
8
0
10
2.750000
20
-3.050000
0
SEQEND
8
0
0
TEXT
8
0
10
2.490000
20
-3.040000
40
0.080000
41
1.000000
1
13
0
POLYLINE
8
0
66
1
40
0.016000
41
0.016000
0
VERTEX
8
0
10
2.550000
20
-3.150000
0
VERTEX
8
0
10
2.750000
20
-3.150000
0
SEQEND
8
0
0
TEXT
8
0
10
2.490000
20
-3.140000
40
0.080000
41
1.000000
1
14
0
POLYLINE
8
0
66
1
40
0.016000
41
0.016000
0
VERTEX
8
0
10
2.550000
20
-3.250000
0
VERTEX
8
0
10
2.750000
20
-3.250000
0
SEQEND
8
0
0
TEXT
8
0
10
2.490000
20
-3.240000
40
0.080000
41
1.000000
1
15
0
POLYLINE
8
0
66
1
40
0.016000
41
0.016000
0
VERTEX
8
0
10
4.140000
20
-1.900000
0
VERTEX
8
0
10
4.140000
20
-1.800000
0
SEQEND
8
0
0
POLYLINE
8
0
66
1
40
0.016000
41
0.016000
0
VERTEX
8
0
10
4.240000
20
-1.800000
0
VERTEX
8
0
10
4.040000
20
-1.800000
0
SEQEND
8
0
0
POLYLINE
8
0
66
1
40
0.016000
41
0.016000
0
VERTEX
8
0
10
4.190000
20
-1.750000
0
VERTEX
8
0
10
4.090000
20
-1.750000
0
SEQEND
8
0
0
POLYLINE
8
0
66
1
40
0.016000
41
0.016000
0
VERTEX
8
0
10
4.150000
20
-1.700000
0
VERTEX
8
0
10
4.130000
20
-1.700000
0
SEQEND
8
0
0
POLYLINE
8
0
66
1
40
0.016000
41
0.016000
0
VERTEX
8
0
10
4.200000
20
-2.240000
0
VERTEX
8
0
10
4.150000
20
-2.340000
0
VERTEX
8
0
10
4.100000
20
-2.240000
0
VERTEX
8
0
10
4.200000
20
-2.240000
0
SEQEND
8
0
0
POLYLINE
8
0
66
1
40
0.016000
41
0.016000
0
VERTEX
8
0
10
4.150000
20
-2.140000
0
VERTEX
8
0
10
4.150000
20
-2.340000
0
SEQEND
8
0
0
TEXT
8
0
10
4.010000
20
-2.480000
40
0.080000
41
1.000000
1
VCC
0
CIRCLE
8
0
10
4.020000
20
-3.220000
40
0.020000
0
CIRCLE
8
0
10
4.020000
20
-3.120000
40
0.020000
0
CIRCLE
8
0
10
4.020000
20
-3.020000
40
0.020000
0
CIRCLE
8
0
10
4.020000
20
-2.920000
40
0.020000
0
CIRCLE
8
0
10
4.020000
20
-2.820000
40
0.020000
0
CIRCLE
8
0
10
4.020000
20
-2.720000
40
0.020000
0
CIRCLE
8
0
10
4.020000
20
-2.620000
40
0.020000
0
CIRCLE
8
0
10
4.020000
20
-2.520000
40
0.020000
0
CIRCLE
8
0
10
4.020000
20
-2.420000
40
0.020000
0
CIRCLE
8
0
10
4.020000
20
-2.320000
40
0.020000
0
CIRCLE
8
0
10
4.020000
20
-2.220000
40
0.020000
0
CIRCLE
8
0
10
2.290000
20
-2.250000
40
0.020000
0
CIRCLE
8
0
10
2.290000
20
-2.350000
40
0.020000
0
CIRCLE
8
0
10
2.290000
20
-2.450000
40
0.020000
0
CIRCLE
8
0
10
2.290000
20
-2.550000
40
0.020000
0
CIRCLE
8
0
10
2.290000
20
-2.650000
40
0.020000
0
CIRCLE
8
0
10
2.290000
20
-2.750000
40
0.020000
0
CIRCLE
8
0
10
2.290000
20
-2.850000
40
0.020000
0
CIRCLE
8
0
10
2.290000
20
-2.950000
40
0.020000
0
CIRCLE
8
0
10
2.290000
20
-3.050000
40
0.020000
0
CIRCLE
8
0
10
2.290000
20
-3.150000
40
0.020000
0
CIRCLE
8
0
10
2.290000
20
-3.250000
40
0.020000
0
CIRCLE
8
0
10
-1.060000
20
-3.460000
40
0.020000
0
CIRCLE
8
0
10
-1.060000
20
-3.290000
40
0.020000
0
CIRCLE
8
0
10
-1.060000
20
-3.150000
40
0.020000
0
CIRCLE
8
0
10
-1.060000
20
-3.000000
40
0.020000
0
CIRCLE
8
0
10
-1.060000
20
-2.850000
40
0.020000
0
CIRCLE
8
0
10
-1.060000
20
-2.700000
40
0.020000
0
CIRCLE
8
0
10
-1.060000
20
-2.550000
40
0.020000
0
CIRCLE
8
0
10
-1.060000
20
-2.400000
40
0.020000
0
CIRCLE
8
0
10
-1.060000
20
-2.250000
40
0.020000
0
CIRCLE
8
0
10
-1.060000
20
-2.100000
40
0.020000
0
CIRCLE
8
0
10
-1.060000
20
-1.950000
40
0.020000
0
CIRCLE
8
0
10
-1.060000
20
-1.800000
40
0.020000
0
CIRCLE
8
0
10
-1.060000
20
-1.650000
40
0.020000
0
CIRCLE
8
0
10
1.340000
20
-2.100000
40
0.020000
0
CIRCLE
8
0
10
1.340000
20
-2.260000
40
0.020000
0
CIRCLE
8
0
10
1.340000
20
-2.400000
40
0.020000
0
CIRCLE
8
0
10
1.340000
20
-2.550000
40
0.020000
0
CIRCLE
8
0
10
1.340000
20
-2.700000
40
0.020000
0
CIRCLE
8
0
10
1.340000
20
-2.850000
40
0.020000
0
CIRCLE
8
0
10
1.330000
20
-3.000000
40
0.020000
0
CIRCLE
8
0
10
1.330000
20
-3.150000
40
0.020000
0
CIRCLE
8
0
10
1.330000
20
-3.460000
40
0.020000
0
CIRCLE
8
0
10
2.280000
20
-1.850000
40
0.020000
0
CIRCLE
8
0
10
2.280000
20
-1.950000
40
0.020000
0
POLYLINE
8
0
66
1
40
0.016000
41
0.016000
0
VERTEX
8
0
10
1.400000
20
0.570000
0
VERTEX
8
0
10
1.400000
20
0.470000
0
SEQEND
8
0
0
POLYLINE
8
0
66
1
40
0.016000
41
0.016000
0
VERTEX
8
0
10
1.300000
20
0.470000
0
VERTEX
8
0
10
1.500000
20
0.470000
0
SEQEND
8
0
0
POLYLINE
8
0
66
1
40
0.016000
41
0.016000
0
VERTEX
8
0
10
1.350000
20
0.420000
0
VERTEX
8
0
10
1.450000
20
0.420000
0
SEQEND
8
0
0
POLYLINE
8
0
66
1
40
0.016000
41
0.016000
0
VERTEX
8
0
10
1.390000
20
0.370000
0
VERTEX
8
0
10
1.410000
20
0.370000
0
SEQEND
8
0
0
POLYLINE
8
0
66
1
40
0.016000
41
0.016000
0
VERTEX
8
0
10
0.970000
20
0.780000
0
VERTEX
8
0
10
1.020000
20
0.880000
0
VERTEX
8
0
10
1.070000
20
0.780000
0
VERTEX
8
0
10
0.970000
20
0.780000
0
SEQEND
8
0
0
POLYLINE
8
0
66
1
40
0.016000
41
0.016000
0
VERTEX
8
0
10
1.020000
20
0.680000
0
VERTEX
8
0
10
1.020000
20
0.880000
0
SEQEND
8
0
0
TEXT
8
0
10
0.920000
20
0.940000
40
0.080000
41
1.000000
1
VCC
0
CIRCLE
8
0
10
1.150000
20
0.820000
40
0.020000
0
CIRCLE
8
0
10
1.150000
20
0.920000
40
0.020000
0
POLYLINE
8
0
66
1
40
0.016000
41
0.016000
0
VERTEX
8
0
10
-2.540000
20
-1.060000
0
VERTEX
8
0
10
-2.490000
20
-0.960000
0
VERTEX
8
0
10
-2.440000
20
-1.060000
0
VERTEX
8
0
10
-2.540000
20
-1.060000
0
SEQEND
8
0
0
POLYLINE
8
0
66
1
40
0.016000
41
0.016000
0
VERTEX
8
0
10
-2.490000
20
-1.160000
0
VERTEX
8
0
10
-2.490000
20
-0.960000
0
SEQEND
8
0
0
TEXT
8
0
10
-2.590000
20
-0.940000
40
0.080000
41
1.000000
1
VCC
0
POLYLINE
8
0
66
1
40
0.016000
41
0.016000
0
VERTEX
8
0
10
-2.480000
20
-1.300000
0
VERTEX
8
0
10
-2.480000
20
-1.400000
0
SEQEND
8
0
0
POLYLINE
8
0
66
1
40
0.016000
41
0.016000
0
VERTEX
8
0
10
-2.580000
20
-1.400000
0
VERTEX
8
0
10
-2.380000
20
-1.400000
0
SEQEND
8
0
0
POLYLINE
8
0
66
1
40
0.016000
41
0.016000
0
VERTEX
8
0
10
-2.530000
20
-1.450000
0
VERTEX
8
0
10
-2.430000
20
-1.450000
0
SEQEND
8
0
0
POLYLINE
8
0
66
1
40
0.016000
41
0.016000
0
VERTEX
8
0
10
-2.490000
20
-1.500000
0
VERTEX
8
0
10
-2.470000
20
-1.500000
0
SEQEND
8
0
0
POLYLINE
8
0
66
1
40
0.016000
41
0.016000
0
VERTEX
8
0
10
-0.790000
20
0.900000
0
VERTEX
8
0
10
-0.740000
20
1.000000
0
VERTEX
8
0
10
-0.690000
20
0.900000
0
VERTEX
8
0
10
-0.790000
20
0.900000
0
SEQEND
8
0
0
POLYLINE
8
0
66
1
40
0.016000
41
0.016000
0
VERTEX
8
0
10
-0.740000
20
0.800000
0
VERTEX
8
0
10
-0.740000
20
1.000000
0
SEQEND
8
0
0
TEXT
8
0
10
-0.840000
20
1.060000
40
0.080000
41
1.000000
1
VCC
0
POLYLINE
8
0
66
1
40
0.016000
41
0.016000
0
VERTEX
8
0
10
-1.040000
20
0.590000
0
VERTEX
8
0
10
-1.040000
20
0.490000
0
SEQEND
8
0
0
POLYLINE
8
0
66
1
40
0.016000
41
0.016000
0
VERTEX
8
0
10
-1.140000
20
0.490000
0
VERTEX
8
0
10
-0.940000
20
0.490000
0
SEQEND
8
0
0
POLYLINE
8
0
66
1
40
0.016000
41
0.016000
0
VERTEX
8
0
10
-1.090000
20
0.440000
0
VERTEX
8
0
10
-0.990000
20
0.440000
0
SEQEND
8
0
0
POLYLINE
8
0
66
1
40
0.016000
41
0.016000
0
VERTEX
8
0
10
-1.050000
20
0.390000
0
VERTEX
8
0
10
-1.030000
20
0.390000
0
SEQEND
8
0
0
CIRCLE
8
0
10
-0.830000
20
0.530000
40
0.020000
0
CIRCLE
8
0
10
-0.830000
20
0.430000
40
0.020000
0
POLYLINE
8
0
66
1
40
0.016000
41
0.016000
0
VERTEX
8
0
10
-2.450000
20
-5.940000
0
VERTEX
8
0
10
-2.250000
20
-5.940000
0
VERTEX
8
0
10
-2.250000
20
-4.340000
0
VERTEX
8
0
10
-2.450000
20
-4.340000
0
VERTEX
8
0
10
-2.450000
20
-5.940000
0
SEQEND
8
0
0
POLYLINE
8
0
66
1
40
0.016000
41
0.016000
0
VERTEX
8
0
10
-2.380000
20
-4.440000
0
VERTEX
8
0
10
-2.450000
20
-4.440000
0
SEQEND
8
0
0
CIRCLE
8
0
10
-2.350000
20
-4.540000
40
0.030000
0
POLYLINE
8
0
66
1
40
0.016000
41
0.016000
0
VERTEX
8
0
10
-2.380000
20
-4.540000
0
VERTEX
8
0
10
-2.450000
20
-4.540000
0
SEQEND
8
0
0
CIRCLE
8
0
10
-2.350000
20
-4.640000
40
0.030000
0
POLYLINE
8
0
66
1
40
0.016000
41
0.016000
0
VERTEX
8
0
10
-2.380000
20
-4.640000
0
VERTEX
8
0
10
-2.450000
20
-4.640000
0
SEQEND
8
0
0
CIRCLE
8
0
10
-2.350000
20
-4.740000
40
0.030000
0
POLYLINE
8
0
66
1
40
0.016000
41
0.016000
0
VERTEX
8
0
10
-2.380000
20
-4.740000
0
VERTEX
8
0
10
-2.450000
20
-4.740000
0
SEQEND
8
0
0
CIRCLE
8
0
10
-2.350000
20
-4.840000
40
0.030000
0
POLYLINE
8
0
66
1
40
0.016000
41
0.016000
0
VERTEX
8
0
10
-2.380000
20
-4.840000
0
VERTEX
8
0
10
-2.450000
20
-4.840000
0
SEQEND
8
0
0
CIRCLE
8
0
10
-2.350000
20
-4.940000
40
0.030000
0
POLYLINE
8
0
66
1
40
0.016000
41
0.016000
0
VERTEX
8
0
10
-2.380000
20
-4.940000
0
VERTEX
8
0
10
-2.450000
20
-4.940000
0
SEQEND
8
0
0
CIRCLE
8
0
10
-2.350000
20
-5.040000
40
0.030000
0
POLYLINE
8
0
66
1
40
0.016000
41
0.016000
0
VERTEX
8
0
10
-2.380000
20
-5.040000
0
VERTEX
8
0
10
-2.450000
20
-5.040000
0
SEQEND
8
0
0
CIRCLE
8
0
10
-2.350000
20
-5.140000
40
0.030000
0
POLYLINE
8
0
66
1
40
0.016000
41
0.016000
0
VERTEX
8
0
10
-2.380000
20
-5.140000
0
VERTEX
8
0
10
-2.450000
20
-5.140000
0
SEQEND
8
0
0
CIRCLE
8
0
10
-2.350000
20
-5.240000
40
0.030000
0
POLYLINE
8
0
66
1
40
0.016000
41
0.016000
0
VERTEX
8
0
10
-2.380000
20
-5.240000
0
VERTEX
8
0
10
-2.450000
20
-5.240000
0
SEQEND
8
0
0
CIRCLE
8
0
10
-2.350000
20
-5.340000
40
0.030000
0
POLYLINE
8
0
66
1
40
0.016000
41
0.016000
0
VERTEX
8
0
10
-2.380000
20
-5.340000
0
VERTEX
8
0
10
-2.450000
20
-5.340000
0
SEQEND
8
0
0
CIRCLE
8
0
10
-2.350000
20
-5.440000
40
0.030000
0
POLYLINE
8
0
66
1
40
0.016000
41
0.016000
0
VERTEX
8
0
10
-2.380000
20
-5.440000
0
VERTEX
8
0
10
-2.450000
20
-5.440000
0
SEQEND
8
0
0
CIRCLE
8
0
10
-2.350000
20
-5.540000
40
0.030000
0
POLYLINE
8
0
66
1
40
0.016000
41
0.016000
0
VERTEX
8
0
10
-2.380000
20
-5.540000
0
VERTEX
8
0
10
-2.450000
20
-5.540000
0
SEQEND
8
0
0
CIRCLE
8
0
10
-2.350000
20
-5.640000
40
0.030000
0
POLYLINE
8
0
66
1
40
0.016000
41
0.016000
0
VERTEX
8
0
10
-2.380000
20
-5.640000
0
VERTEX
8
0
10
-2.450000
20
-5.640000
0
SEQEND
8
0
0
CIRCLE
8
0
10
-2.350000
20
-5.740000
40
0.030000
0
POLYLINE
8
0
66
1
40
0.016000
41
0.016000
0
VERTEX
8
0
10
-2.380000
20
-5.740000
0
VERTEX
8
0
10
-2.450000
20
-5.740000
0
SEQEND
8
0
0
CIRCLE
8
0
10
-2.350000
20
-5.840000
40
0.030000
0
POLYLINE
8
0
66
1
40
0.016000
41
0.016000
0
VERTEX
8
0
10
-2.380000
20
-5.840000
0
VERTEX
8
0
10
-2.450000
20
-5.840000
0
SEQEND
8
0
0
CIRCLE
8
0
10
-2.350000
20
-4.440000
40
0.030000
0
POLYLINE
8
0
66
1
40
0.016000
41
0.016000
0
VERTEX
8
0
10
-2.650000
20
-4.440000
0
VERTEX
8
0
10
-2.450000
20
-4.440000
0
SEQEND
8
0
0
TEXT
8
0
10
-2.630000
20
-4.430000
40
0.080000
41
1.000000
1
1
0
POLYLINE
8
0
66
1
40
0.016000
41
0.016000
0
VERTEX
8
0
10
-2.650000
20
-4.540000
0
VERTEX
8
0
10
-2.450000
20
-4.540000
0
SEQEND
8
0
0
TEXT
8
0
10
-2.630000
20
-4.530000
40
0.080000
41
1.000000
1
2
0
POLYLINE
8
0
66
1
40
0.016000
41
0.016000
0
VERTEX
8
0
10
-2.650000
20
-4.640000
0
VERTEX
8
0
10
-2.450000
20
-4.640000
0
SEQEND
8
0
0
TEXT
8
0
10
-2.630000
20
-4.630000
40
0.080000
41
1.000000
1
3
0
POLYLINE
8
0
66
1
40
0.016000
41
0.016000
0
VERTEX
8
0
10
-2.650000
20
-4.740000
0
VERTEX
8
0
10
-2.450000
20
-4.740000
0
SEQEND
8
0
0
TEXT
8
0
10
-2.630000
20
-4.730000
40
0.080000
41
1.000000
1
4
0
POLYLINE
8
0
66
1
40
0.016000
41
0.016000
0
VERTEX
8
0
10
-2.650000
20
-4.840000
0
VERTEX
8
0
10
-2.450000
20
-4.840000
0
SEQEND
8
0
0
TEXT
8
0
10
-2.630000
20
-4.830000
40
0.080000
41
1.000000
1
5
0
POLYLINE
8
0
66
1
40
0.016000
41
0.016000
0
VERTEX
8
0
10
-2.650000
20
-4.940000
0
VERTEX
8
0
10
-2.450000
20
-4.940000
0
SEQEND
8
0
0
TEXT
8
0
10
-2.630000
20
-4.930000
40
0.080000
41
1.000000
1
6
0
POLYLINE
8
0
66
1
40
0.016000
41
0.016000
0
VERTEX
8
0
10
-2.650000
20
-5.040000
0
VERTEX
8
0
10
-2.450000
20
-5.040000
0
SEQEND
8
0
0
TEXT
8
0
10
-2.630000
20
-5.030000
40
0.080000
41
1.000000
1
7
0
POLYLINE
8
0
66
1
40
0.016000
41
0.016000
0
VERTEX
8
0
10
-2.650000
20
-5.140000
0
VERTEX
8
0
10
-2.450000
20
-5.140000
0
SEQEND
8
0
0
TEXT
8
0
10
-2.630000
20
-5.130000
40
0.080000
41
1.000000
1
8
0
POLYLINE
8
0
66
1
40
0.016000
41
0.016000
0
VERTEX
8
0
10
-2.650000
20
-5.240000
0
VERTEX
8
0
10
-2.450000
20
-5.240000
0
SEQEND
8
0
0
TEXT
8
0
10
-2.630000
20
-5.230000
40
0.080000
41
1.000000
1
9
0
POLYLINE
8
0
66
1
40
0.016000
41
0.016000
0
VERTEX
8
0
10
-2.650000
20
-5.340000
0
VERTEX
8
0
10
-2.450000
20
-5.340000
0
SEQEND
8
0
0
TEXT
8
0
10
-2.710000
20
-5.330000
40
0.080000
41
1.000000
1
10
0
POLYLINE
8
0
66
1
40
0.016000
41
0.016000
0
VERTEX
8
0
10
-2.650000
20
-5.440000
0
VERTEX
8
0
10
-2.450000
20
-5.440000
0
SEQEND
8
0
0
TEXT
8
0
10
-2.710000
20
-5.430000
40
0.080000
41
1.000000
1
11
0
POLYLINE
8
0
66
1
40
0.016000
41
0.016000
0
VERTEX
8
0
10
-2.650000
20
-5.540000
0
VERTEX
8
0
10
-2.450000
20
-5.540000
0
SEQEND
8
0
0
TEXT
8
0
10
-2.710000
20
-5.530000
40
0.080000
41
1.000000
1
12
0
POLYLINE
8
0
66
1
40
0.016000
41
0.016000
0
VERTEX
8
0
10
-2.650000
20
-5.640000
0
VERTEX
8
0
10
-2.450000
20
-5.640000
0
SEQEND
8
0
0
TEXT
8
0
10
-2.710000
20
-5.630000
40
0.080000
41
1.000000
1
13
0
POLYLINE
8
0
66
1
40
0.016000
41
0.016000
0
VERTEX
8
0
10
-2.650000
20
-5.740000
0
VERTEX
8
0
10
-2.450000
20
-5.740000
0
SEQEND
8
0
0
TEXT
8
0
10
-2.710000
20
-5.730000
40
0.080000
41
1.000000
1
14
0
POLYLINE
8
0
66
1
40
0.016000
41
0.016000
0
VERTEX
8
0
10
-2.650000
20
-5.840000
0
VERTEX
8
0
10
-2.450000
20
-5.840000
0
SEQEND
8
0
0
TEXT
8
0
10
-2.710000
20
-5.830000
40
0.080000
41
1.000000
1
15
0
TEXT
8
0
10
-2.458000
20
-4.317000
40
0.120000
41
0.666667
1
J2
0
TEXT
8
0
10
-2.458000
20
-6.038000
40
0.080000
41
1.000000
1
SIL-100-15
0
ENDSEC
0
EOF

